<?xml version="1.0" standalone="no"?>
<!DOCTYPE svg PUBLIC "-//W3C//DTD SVG 1.1//EN" "http://www.w3.org/Graphics/SVG/1.1/DTD/svg11.dtd" >
<!--
2013-9-30: Created.
-->
<svg>
<metadata>
Created by iconfont
</metadata>
<defs>

<font id="iconfont" horiz-adv-x="1024" >
  <font-face
    font-family="iconfont"
    font-weight="500"
    font-stretch="normal"
    units-per-em="1024"
    ascent="896"
    descent="-128"
  />
    <missing-glyph />
    
    <glyph glyph-name="icon--" unicode="&#59166;" d="M581.12 476.16h-256c-12.8 0-25.6-10.24-25.6-25.6 0-12.8 10.24-25.6 25.6-25.6h256c12.8 0 25.6 10.24 25.6 25.6s-12.8 25.6-25.6 25.6z m332.8-458.24l-212.48 207.36c56.32 61.44 89.6 140.8 89.6 227.84 0 186.88-153.6 337.92-345.6 337.92S102.4 642.56 102.4 455.68s153.6-337.92 345.6-337.92c81.92 0 158.72 28.16 217.6 76.8l212.48-209.92c10.24-10.24 28.16-10.24 38.4 0 7.68 7.68 7.68 23.04-2.56 33.28z m-465.92 148.48c-161.28 0-291.84 128-291.84 286.72C156.16 611.84 286.72 742.4 448 742.4c161.28 0 291.84-128 291.84-286.72 0-158.72-130.56-289.28-291.84-289.28z"  horiz-adv-x="1024" />

    
    <glyph glyph-name="fangda" unicode="&#58946;" d="M443.744 827.744c207.36 0 375.456-168.128 375.456-375.488 0-100.064-39.168-191.04-103.008-258.336l215.2-215.168a32 32 0 0 0 0-45.248l-3.008-3.04a32 32 0 0 0-45.28 0l-218.24 218.304a373.76 373.76 0 0 0-221.12-71.968c-207.36 0-375.488 168.096-375.488 375.456S236.384 827.744 443.744 827.744z m0-68.288a307.2 307.2 0 1 1 0-614.4 307.2 307.2 0 0 1 0 614.4z m2.112-136.512a32 32 0 0 0 32-32V486.4l104.544-0.032a32 32 0 0 0 32-32v-4.256a32 32 0 0 0-32-32h-104.544V313.6a32 32 0 0 0-32-32H441.6a32 32 0 0 0-32 32v104.544H305.024a32 32 0 0 0-32 32V454.4a32 32 0 0 0 32 32H409.6l0.032 104.544a32 32 0 0 0 32 32h4.256z"  horiz-adv-x="1024" />

    
    <glyph glyph-name="ziduanxuanze1" unicode="&#59096;" d="M594.2647808 462.4721888c14.48080853 14.61872107 36.13306347 19.307744 55.302896 12.13629653 0.55165013-0.27582507 1.1032992-0.55165013 1.79286187-0.68956266 4.2752864-1.24121173 8.8263968-0.13791253 11.998384 3.0340736 1.37912427 1.37912427 2.344512 3.17198613 2.89616106 4.96484906 1.37912427 4.2752864 0.27582507 8.96430933-2.89616106 12.13629654l-83.98868694 83.98868693c-12.55003413 12.55003413-33.09898987 12.55003413-45.649024 0l-65.37050453-65.3705056c-3.8615488-3.99946133-9.92969707-4.689024-14.7566336-1.9307744-4.82693653 2.89616213-7.03353493 8.5505728-5.3785856 13.9291584 0.13791253 0.4137376 0.13791253 0.68956267 0.27582507 0.96538667l0.96538773 2.7582496c7.30936 22.61764267-1.37912427 47.30397333-21.51434347 60.267744-20.68686827 13.23959573-47.8556224 10.4813472-65.23259306-6.8956224-17.51488213-17.23905707-20.54895573-44.4078112-7.44727254-65.23259307 12.4121216-19.7214816 36.270976-28.68579093 58.47488214-22.47973013 1.65494933 0.4137376 3.17198613 1.1032992 4.68902293 1.79286186 0.4137376 0.13791253 0.96538773 0.27582507 1.37912533 0.41373654 0.27582507 0 0.4137376 0.13791253 0.6895616 0.13791253 5.24067307 1.1032992 10.61925973-1.37912427 13.10168427-6.06814827 2.48242453-4.689024 1.65494933-10.61925973-2.20659947-14.34289493l-64.1292928-64.1292928c-12.55003413-12.55003413-12.55003413-33.09898987 0-45.649024l79.575488-79.575488c3.99946133-3.8615488 4.689024-9.92969707 1.9307744-14.7566336-2.89616213-4.82693653-8.5505728-7.03353493-13.9291584-5.3785856-0.68956267 0.13791253-1.24121173 0.4137376-1.79286186 0.68956267-23.03138027 8.5505728-48.95892267-0.13791253-62.1985184-20.8247808-13.23959573-20.68686827-10.4813472-47.8556224 6.8956224-65.23259307 17.23905707-17.51488213 44.4078112-20.54895573 65.23259306-7.44727253 19.7214816 12.4121216 28.82370347 36.40888853 22.47973014 58.47488213-0.4137376 1.65494933-1.1032992 3.17198613-1.79286187 4.68902293-0.13791253 0.4137376-0.27582507 0.96538773-0.4137376 1.51703787 0 0.27582507-0.13791253 0.4137376-0.13791147 0.6895616-1.1032992 5.24067307 1.37912427 10.61925973 6.0681472 13.10168427 4.689024 2.48242453 10.61925973 1.65494933 14.342896-2.20659947l45.2352864-45.2352864c12.55003413-12.55003413 33.09898987-12.55003413 45.649024 0l166.32242347 166.32242453c12.55003413 12.55003413 12.55003413 33.09898987 0 45.64902294l-40.96 40.96c-3.17198613 3.17198613-7.86101013 4.41319893-12.13629653 2.89616213-1.9307744-0.55165013-3.58572373-1.5170368-4.964848-2.89616213-2.89616213-2.89616213-4.13737387-6.8956224-3.30989867-10.89508374 0-0.27582507 0.13791253-0.4137376 0.13791253-0.68956266 0.13791253-0.4137376 0.27582507-0.96538773 0.41373654-1.37912427 0.55165013-1.5170368 1.24121173-3.0340736 1.79286186-4.689024 6.2060608-22.0659936-2.7582496-45.924848-22.47973013-58.3369696-20.68686827-13.1016832-47.5797984-10.20552213-65.09468053 7.033536-20.27313173 19.99730667-20.27313173 53.23420907 0.13791253 73.7831648z m0 0M836.163232 81.83380480000005c-6.34397333 0-11.86047147 4.2752864-13.5154208 10.4813472-1.65494933 6.2060608 0.96538773 12.6879456 6.48188587 15.85993173l54.61333333 31.58195307c15.17037013 8.8263968 24.6863296 25.23797973 24.6863296 42.75286187v401.32525333c0 17.51488213-9.51595947 33.92646507-24.6863296 42.75286187L536.3415488 827.11272747c-15.30828267 8.8263968-34.0643776 8.8263968-49.37266027 0l-131.43057173-75.85185174c-4.41319893-2.62033707-9.79178453-2.62033707-14.20498347 0-4.41319893 2.48242453-7.03353493 7.17144747-7.03353493 12.274208s2.7582496 9.79178453 7.17144747 12.27420907L472.90181867 851.523232c23.996768 13.79124587 53.51003413 13.79124587 77.50680106 0l347.53939414-200.66262613c23.996768-13.9291584 38.75340053-39.4429632 38.75340053-67.1633664v-401.32525334c0-27.58249173-14.89454507-53.3721216-38.75340053-67.1633664l-54.61333334-31.58195306c-2.20659947-1.1032992-4.689024-1.79286187-7.17144853-1.79286187z m0 0M302.02828267 669.6167008c-37.23636373 0-67.577104 30.34074027-67.577104 67.43919147s30.34074027 67.43919147 67.577104 67.43919146 67.43919147-30.34074027 67.43919253-67.43919146-30.2028288-67.43919147-67.43919253-67.43919147z m0 106.88215467M511.6552192-95.65952852999999c-13.37750827 0-26.75501653 3.4478112-38.75340053 10.34343466L125.36242453 115.34653227000001C101.36565653 129.27569067000002 86.609024 154.78949547000002 86.609024 182.50989866999998v401.32525333c0 27.58249173 14.89454507 53.3721216 38.75340053 67.1633664l54.75124587 31.58195307c3.17198613 1.9307744 7.03353493 2.344512 10.7571712 1.37912426s6.75771093-3.30989867 8.5505728-6.61979733c1.9307744-3.30989867 2.344512-7.03353493 1.37912427-10.75717227-0.96538773-3.58572373-3.30989867-6.75771093-6.6197984-8.55057173l-54.61333334-31.58195307c-15.17037013-8.8263968-24.54841707-25.1000672-24.6863296-42.75286186v-401.32525334c0-17.51488213 9.51595947-33.92646507 24.6863296-42.75286186l347.53939414-200.66262614c15.30828267-8.8263968 34.0643776-8.8263968 49.37266026 0l131.4305728 75.85185174c3.30989867 1.9307744 7.17144747 2.48242453 10.7571712 1.51703786 3.58572373-0.96538773 6.75771093-3.30989867 8.5505728-6.6197984 1.9307744-3.17198613 2.344512-7.03353493 1.37912427-10.75717226-0.96538773-3.58572373-3.30989867-6.75771093-6.6197984-8.55057174l-131.43057173-75.85185173c-11.86047147-6.6197984-25.23797973-10.20552213-38.89131307-10.20552213z m0 0M721.28215467-38.42585813000005c-37.23636373 0-67.43919147 30.2028288-67.43919147 67.43919146s30.2028288 67.43919147 67.43919147 67.577104c37.23636373 0 67.43919147-30.2028288 67.57710506-67.577104-0.13791253-37.23636373-30.34074027-67.43919147-67.57710506-67.43919146z m0 106.74424213"  horiz-adv-x="1024" />

    
    <glyph glyph-name="jiaose2" unicode="&#59098;" d="M519.20822499 536.99088611h-0.7355335c-31.62792391 0-61.49056739-12.20984946-83.99788146-34.42294897-22.65441963-22.36020622-35.30558919-52.36995755-35.5998026-84.29209373-0.29421341-31.92213731 12.06274275-62.07899421 34.42295012-84.73341496 22.36020622-22.65441963 52.36995755-35.30558919 84.29209372-35.5998026h0.73553351c65.60955278 0 119.15636395 53.10548992 119.59768292 118.71504384 0.29421341 31.92213731-12.06274275 62.07899421-34.42294898 84.73341497-22.36020622 22.80152633-52.36995755 35.45269589-84.29209373 35.59980145zM912.71843726 382.97025309c0 12.65116957-4.41319879 24.12548551-11.91563605 33.09899093 50.16335815 83.85077475 59.4310747 160.34621781 25.89076594 216.24673393-31.92213731 53.10548992-98.41433031 80.76153515-188.59068985 79.14336256-7.20822499 19.71228786-26.0378715 33.83452331-48.10386546 33.98162888h-0.29421227c-3.67766528 0-7.20822499-0.44132011-10.73878357-1.17685248-45.16173255 78.84914915-103.26884807 121.80428231-165.49495011 121.80428231-61.9318875 0-119.89189632-42.66091975-164.90652218-120.62742983-2.20659939 0.29421341-4.41319879 0.44132011-6.76690488 0.5884268-21.91888611 0.1471067-40.74853376-13.53380864-48.25097216-32.80477638-91.35321202 2.79502621-158.87515193-24.41969891-191.53282162-77.67229668C67.88510834 579.6518070100001 76.71150592 503.00925725 126.58065067 418.57005568c-6.47269149-8.53218418-10.29746347-19.12386105-10.44457017-30.7452837 0-12.20984946 4.11898539-23.68416654 11.62142379-32.95188309C75.97597355 269.69815495 66.11982905 192.17296497999996 100.10145906 135.53691533999995c31.0394971-51.63442403 94.58955833-79.29046926 180.94114475-79.29046812 3.23634517 0 6.47269149 0 9.70903665 0.14710556 7.79665067-18.24122083 25.89076594-31.0394971 46.92701298-31.1866038h0.29421341c2.79502621 0 5.59005127 0.29421341 8.38507747 0.73553351 45.30883925-80.32021504 104.00438158-124.15798841 166.81890816-124.15798841 62.07899421 0 120.18610973 42.80802645 165.20073671 121.36296221 3.23634517-0.58842681 6.47269149-1.02974691 9.85614336-1.02974578h0.2942134c21.62467385 0 40.30721479 13.53380864 47.95675876 32.51056298 3.23634517 0 6.32558478-0.1471067 9.41482439-0.1471067 84.73341383 0 147.40083485 27.06761842 178.44033195 77.81940338 34.12873671 55.90051613 25.30233913 132.69017259-24.71391232 217.27648085 8.53218418 9.26771769 12.94538297 20.88914034 13.09248853 33.39320207zM737.51445163 674.82979101c0.88264021 2.3537061 1.76527929 4.8545189 2.35370496 7.35533169h6.03137251c75.46569728 0 130.04225309-22.65441963 155.49169892-65.02112711 27.65604523-45.89726606 18.68254094-111.21260658-25.15523243-184.76591673-4.70741219 1.47106589-9.56192995 2.20659939-14.71066226 2.2065994h-0.2942134c-7.06111829 0-13.82802205-1.47106589-20.15360683-4.11898539-26.0378715 30.00975133-56.04762283 59.28396914-89.44082603 86.94001323-6.91401159 47.80965205-17.65279517 93.26559801-31.77503061 134.74966528 7.79665067 5.73715797 14.12223545 13.53380864 17.65279517 22.65441963z m19.41807331-200.65343147c22.50731293-20.15360683 43.10223986-41.04274717 61.49056853-62.37320761-5.59005127-8.23797077-8.67929088-17.94700743-8.67929088-28.24447204 0-10.88589027 3.23634517-21.03624704 8.97350429-29.27421781-18.53543424-21.18335374-39.27746787-41.92538738-61.93188864-61.9318875 2.94213291 29.86264462 4.41319879 60.46082162 4.41319879 91.64742542 0 30.59817699-1.47106589 60.75503502-4.26609209 90.17635954z m-25.15523243-90.32346624c0-40.74853376-2.6479195-80.76153515-7.79665066-119.15636395-7.79665067-6.17847808-15.74040803-12.35695616-23.83127211-18.38832754-28.2444709 18.68254094-62.07899421 33.09898979-98.41433031 41.77828068l-3.23634631 0.88264021-2.94213177-1.76527929c-24.12548551-15.00487566-51.78153074-22.65441963-80.02600277-22.65442076-28.2444709 0.29421341-55.75340942 8.38507747-79.73178823 23.53705984l-2.94213291 1.91238599-3.23634517-0.73553237c-37.95350869-8.67929088-73.11199118-23.53705984-102.2391023-42.8080276-8.38507747 6.32558478-16.62304825 12.65116957-24.56680562 19.12386106-5.0016256 38.10061539-7.64954397 77.67229667-7.6495451 118.12661702 0 40.74853376 2.6479195 80.76153515 7.79665067 119.15636395 30.30396359 24.12548551 63.10874112 46.92701184 98.12011691 67.96325888 37.36508189 22.50731293 75.46569728 41.92538738 113.41920597 57.96000882 37.80640199-16.32883485 75.75991069-36.0411227 112.97788473-58.84264789 34.57005568-21.18335374 66.9335131-43.98488007 96.79615772-68.11036672 4.8545189-37.80640199 7.50243726-77.52518997 7.50243726-117.97951033z m-42.36670634 258.61344142h2.64791836c10.44457017-30.59817699 18.97675435-63.40295453 25.30233913-97.97301021-23.68416654 17.79990073-48.69229227 34.71716238-74.73016377 50.75178383-29.71553792 18.24122083-59.87239481 34.42294898-90.1763584 48.69229227 30.8923904 11.32721038 61.6376741 20.15360683 91.35321202 26.4791916 0.73553351-1.47106589 1.61817259-2.94213291 2.50081166-4.41319879 9.12061099-13.97512875 25.00812573-23.53705984 43.102241-23.5370587zM513.47106589 836.6470747c51.19310393 0 100.1796096-37.65929529 139.75129088-106.50519324-7.94375737-8.09086407-13.38670307-18.82964765-14.71066226-30.74528484-40.30721479-8.53218418-82.08549547-21.62467385-124.01088171-38.54193436-41.18985387 17.06436835-82.23260103 30.30396359-121.80428345 39.13036117-1.32395918 11.62142265-6.32558478 22.21309952-14.56355556 30.598177-0.58842681 0.73553351-1.32395918 1.32395918-2.05949269 1.91238599l-0.58842567 0.58842681c39.13036117 67.08061981 87.52844003 103.56306147 137.98601046 103.56306147zM335.03073394 643.34897379c2.05949269-0.29421341 4.11898539-0.44132011 6.17847808-0.44131896h0.2942134c19.71228786 0 36.92376178 11.18010368 45.60305266 27.36183068 0.1471067 0.1471067 0.1471067 0.44132011 0.29421341 0.58842681 28.98000441-6.61979819 58.84264903-15.44619577 88.85239921-26.77340501-30.30396359-13.97512875-60.75503502-30.00975133-90.4705718-47.95675876-26.62629831-16.03462144-52.07574414-33.09898979-76.20123079-50.89889052 6.32558478 34.71716238 14.85776896 67.52193991 25.44944583 98.12011576zM127.16907747 620.1061285000001c25.44944583 41.63117397 79.14336256 63.84427349 153.13799282 63.84427349 3.53055858 0 7.20822499 0 10.88589028-0.1471067 0-0.1471067 0.1471067-0.44132011 0.1471067-0.58842681 2.5008128-11.03299698 8.53218418-20.74203363 16.77015495-27.80315079-14.56355555-41.92538738-25.59655253-88.11686685-32.80477639-136.80915911-32.51056299-26.62629831-61.9318875-54.72366365-87.52844004-83.70366692-6.03137138 2.6479195-12.79827627 3.97187869-19.71228785 4.11898539H167.77050453c-6.03137138 0-11.76852935-1.02974691-17.21147392-2.94213291-42.95513315 73.55331129-51.19310393 138.57443726-23.38995314 184.03038436z m142.69342266-326.42959474c-22.50731293 20.15360683-43.10223986 41.04274717-61.4905674 62.22610205 6.61979819 8.67929088 10.73878357 19.41807445 10.73878357 31.1866038 0 10.73878357-3.23634517 20.74203363-8.82639758 28.98000441 17.94700743 20.30071353 37.95350869 40.16010809 59.57818141 59.283968-2.94213291-29.86264462-4.41319879-60.46082162-4.41319766-91.64742543 0.1471067-30.45107029 1.61817259-60.60792832 4.41319766-90.02925283z m32.21635072-180.49982464c-7.06111829-6.91401159-11.76852935-15.44619577-13.97512875-24.86101902-0.1471067-0.88264021-0.44132011-1.76527929-0.58842681-2.5008128-78.84914915-1.32395918-135.9265189 21.33046045-162.2586038 64.87402041-27.95025863 46.48569287-18.38832754 112.83077917 26.77340501 187.56094293 4.8545189-1.47106589 9.85614336-2.3537061 15.15198236-2.3537061h0.29421341c5.88426467 0 11.47431595 1.02974691 16.77015495 2.79502621 26.33208491-30.59817699 56.78315634-60.16660821 90.61767851-88.41108025 6.91401159-47.36833195 17.50568846-92.23585223 31.3337105-133.2785994-1.17685248-1.17685248-2.79502621-2.3537061-4.11898538-3.82477198z m36.48244166 14.85776896h-0.29421226c-0.88264021 0-1.91238599 0-2.7950262-0.1471067-0.58842681 0-1.17685248-0.1471067-1.61817259-0.14710671-10.00325006 29.86264462-18.24122083 61.7847808-24.41970005 95.47219741 23.68416654-17.79990073 48.69229227-34.71716238 74.73016376-50.75178382 29.71553792-18.24122083 59.87239481-34.42294898 90.17635954-48.69229227-30.15685803-11.03299698-60.01950151-19.71228786-89.14661262-26.0378715-0.1471067 0.1471067-0.1471067 0.44132011-0.2942134 0.58842567-8.09086407 17.50568846-25.74365923 29.56843122-46.33858618 29.71553792zM513.47106589-68.79418140999996c-51.48731733 0-100.76803641 38.10061539-140.48682326 107.68204687 8.38507747 7.64954397 14.12223545 17.94700743 16.03462144 29.71553792 40.16010809 8.53218418 81.49706866 21.47756715 123.27534934 38.39482766 42.51381419-17.65279517 84.73341383-31.0394971 125.48194872-39.86589469v-0.1471067c1.47106589-11.62142265 6.91401159-22.06599282 14.85776782-30.00975018-39.42457458-68.40457899-88.26397355-105.76966087-139.16286406-105.76966088z m178.44033308 193.73942102c-0.88264021 0-1.91238599 0.1471067-2.7950262 0.14710556h-0.29421341c-20.30071353 0-37.95350869-11.76852935-46.33858617-28.9800044-30.00975133 6.61979819-60.90214173 15.74040803-92.08874439 27.36183182 30.30396359 13.97512875 60.75503502 30.00975133 90.47057181 47.95675875 26.62629831 16.03462144 52.07574414 33.09898979 76.20122965 50.89889167-6.17847808-34.27584341-14.71066226-66.9335131-25.15523129-97.3845834z m207.71454976 22.65441962C874.1765029 105.96848525999997 820.48258617 83.90249130999996 746.48795477 83.90249130999996c-2.3537061 0-4.8545189 0-7.20822386 0.1471067-2.05949269 9.70903666-6.76690489 18.53543424-13.68091648 25.74365924-1.91238599 1.91238599-3.82477198 3.53055858-5.88426467 5.14873116 14.26934215 41.33696057 25.00812573 86.64579982 31.92213731 134.45545301 33.5403099 27.50893853 63.84427349 56.63604963 90.02925284 86.49869312 5.88426467-2.5008128 12.35695616-3.82477198 19.27096662-3.82477198h0.2942134c4.8545189 0 9.56192995 0.73553351 14.12223545 1.91238599 43.69066667-74.58305707 52.36995755-140.33971769 24.27259335-186.38408932z"  horiz-adv-x="1024" />

    
    <glyph glyph-name="7table" unicode="&#58883;" d="M66.4 774.8c-1.9-1.7-3-4.2-3-6.8v-763.1c0-6.9 5.6-12.5 12.5-12.5h872c6.9 0 12.5 5.6 12.5 12.5V764.6c0 6.9-5.6 12.5-12.5 12.5H72.6c-2.3 0.1-4.5-0.8-6.2-2.3z m326.3-497.5v158c0 6.9 5.6 12.5 12.5 12.5h206.2c6.9 0 12.5-5.6 12.5-12.5l1-157.1c0-6.9-5.6-12.5-12.5-12.5h-208c-2.9 0-5.6 1-7.7 2.9-2.5 2.1-4 5.3-4 8.7zM624 206v-153.1c0-6.9-5.6-12.5-12.5-12.5H404.3c-6.9 0-12.5 5.6-12.5 12.5V204c0 6.9 5.6 12.5 12.5 12.5l208.2 1c3.5 0 6.9-1.6 9-4.4 1.6-2 2.5-4.5 2.5-7.1z m0 458.8v-156.5c0-6.9-5.6-12.5-12.5-12.5H405.2c-6.9 0-12.5 5.6-12.5 12.5V662.5c0 6.9 5.6 12.5 12.5 12.5h210.7c8.3 0 8.1-9.3 8.1-10.2z m-285.2 6.1c3.1-2.9 4.9-7 4.9-11.2v-150.3c0-6.9-5.6-12.5-12.5-12.5H124.9c-6.9 0-12.5 5.6-12.5 12.5V662.5c0 6.9 5.6 12.5 12.5 12.5h203.3c4 0 7.7-1.4 10.6-4.1zM125 447.8h206.2c6.9 0 12.5-5.6 12.5-12.5v-157.1c0-6.9-5.6-12.5-12.5-12.5H124.9c-6.9 0-12.5 5.6-12.5 12.5v157c0 3.1 1.1 6.1 3.2 8.4 2.4 2.6 5.8 4.2 9.4 4.2z m556.8 0h218c6.9 0 12.5-5.6 12.5-12.5v-157.1c0-6.9-5.6-12.5-12.5-12.5H684.6c-6.9 0-12.5 5.6-12.5 12.5V438c0 2.9 1.3 5.7 3.6 7.6 1.7 1.4 3.9 2.2 6.1 2.2z m-4.3 50.8c-2.4 2.1-3.8 6.2-3.8 9.5l0.4 154.4c0 6.9 5.6 12.5 12.5 12.5h213.2c6.9 0 12.5-5.6 12.5-12.5v-154.1c0-6.9-5.6-12.5-12.5-12.5H684.9c-2.7-0.1-5.4 0.9-7.4 2.7zM126.6 216.5h204.5c6.9 0 12.5-5.6 12.5-12.5v-150.1c0-6.9-5.6-12.5-12.5-12.5H123.9c-6.9 0-12.5 5.6-12.5 12.5V201.3c0 3.9 1.5 7.6 4.1 10.4 2.9 3.1 6.9 4.8 11.1 4.8zM673 55.4V204c0 6.9 5.6 12.5 12.5 12.5h214.2c6.9 0 12.5-5.6 12.5-12.5v-151.1c0-6.9-5.6-12.5-12.5-12.5H688c-3.9 0-7.7 1.5-10.5 4.2-2.8 2.8-4.5 6.7-4.5 10.8z"  horiz-adv-x="1024" />

    
    <glyph glyph-name="shuju" unicode="&#58902;" d="M653.355 725.333a171.69 171.69 0 0 1 168.832-203.05c10.453 0.042 20.906 1.066 31.146 2.986v-340.138c0-143.147-84.437-227.798-227.754-227.798h-312.15c-143.616 0-228.096 84.651-228.096 227.798V496.81c0 143.104 84.438 228.522 228.096 228.522z m5.162-255.744l-4.992-0.341a31.147 31.147 0 0 1-20.778-12.544L529.92 324.437l-117.035 92.16a31.573 31.573 0 0 1-44.672-5.973l-126.037-162.56a30.72 30.72 0 0 1-6.784-19.499l0.128-4.693a31.488 31.488 0 0 1 58.027-13.653L398.976 346.58l117.077-91.776a31.573 31.573 0 0 1 45.014 5.59l121.941 157.354v0.811a32.17 32.17 0 0 1-5.973 44.587 31.147 31.147 0 0 1-23.51 6.144zM725.333 704a106.667 106.667 0 1 1 213.334 0 106.667 106.667 0 1 1-213.334 0z"  horiz-adv-x="1024" />

    
    <glyph glyph-name="-gongcheng" unicode="&#58940;" d="M126.51171875 476.28515625l320.09765625-200.91796875c17.9296875-11.07421875 41.1328125-17.40234375 65.390625-17.40234375 24.2578125 0 47.4609375 6.328125 65.390625 17.40234375l320.09765625 200.91796875c21.62109375 13.7109375 34.27734375 34.27734375 34.27734375 56.42578125 0 22.1484375-12.65625 42.71484375-34.27734375 56.42578125L577.390625 789c-35.859375 22.1484375-94.921875 22.1484375-130.78125 0L126.51171875 588.08203125c-21.62109375-13.18359375-34.27734375-33.75-34.27734375-55.8984375s12.65625-42.71484375 34.27734375-55.8984375z m322.20703125-343.30078125c17.9296875-11.6015625 40.60546875-17.9296875 63.28125-17.9296875 22.67578125 0 45.3515625 5.80078125 63.28125 17.9296875l346.46484375 231.50390625a28.4765625 28.4765625 0 1 1-10.01953125 51.6796875c-7.3828125 1.58203125-15.29296875 0-21.09375-4.21875L543.640625 180.4453125c-16.34765625-11.07421875-46.40625-11.07421875-62.75390625 0L134.421875 411.94921875a27.26367188 27.26367188 0 0 1-21.09375 4.21875c-7.91015625-1.58203125-14.23828125-5.80078125-18.45703125-12.12890625-8.4375-13.18359375-5.2734375-30.5859375 7.91015625-39.55078125l345.9375-231.50390625z m440.859375 126.03515625L543.640625 27.515625c-16.34765625-11.07421875-46.40625-11.07421875-62.75390625 0L134.421875 259.01953125a27.26367188 27.26367188 0 0 1-21.09375 4.21875 28.4765625 28.4765625 0 0 1-10.01953125-51.6796875l345.9375-231.50390625c17.40234375-12.12890625 40.078125-17.9296875 62.75390625-17.9296875 22.67578125 0 45.3515625 5.80078125 63.28125 17.9296875l346.46484375 231.50390625c12.12890625 8.96484375 15.29296875 25.83984375 6.85546875 38.49609375a29.953125 29.953125 0 0 1-39.0234375 8.96484375z m0 0"  horiz-adv-x="1050" />

    
    <glyph glyph-name="-shujufenxi" unicode="&#59156;" d="M710.948571 893.074286l-2.925714 2.925714H703.634286v-1.462857H159.451429c-36.571429 0-67.291429-29.257143-67.291429-65.828572V-57.782857000000035c0-36.571429 30.72-65.828571 67.291429-65.828572h719.725714c36.571429 0 67.291429 29.257143 67.291428 65.828572V666.3314290000001L710.948571 893.074286zM159.451429 872.594286h539.794285l4.388572-4.388572v-166.765714c0-30.72 8.777143-38.034286 48.274285-38.034286h163.84l8.777143-8.777143V515.657143l-810.422857 1.462857V828.708571c0 24.868571 20.48 43.885714 45.348572 43.885715z m766.537142-931.84c0-24.868571-20.48-43.885714-45.348571-43.885715H159.451429c-24.868571 0-45.348571 20.48-45.348572 43.885715V495.177143l811.885714-2.925714v-551.497143zM703.634286 896zM226.742857 694.125714c1.462857 4.388571 4.388571 8.777143 7.314286 16.091429 2.925714-14.628571 7.314286-26.331429 13.165714-38.034286-5.851429-13.165714-14.628571-23.405714-24.868571-32.182857l7.314285-13.165714c10.24 8.777143 17.554286 17.554286 24.868572 30.72 7.314286-11.702857 14.628571-21.942857 23.405714-29.257143l7.314286 13.165714c-8.777143 7.314286-17.554286 17.554286-24.868572 30.72 7.314286 19.017143 11.702857 40.96 11.702858 67.291429h7.314285v14.628571h-35.108571c1.462857 4.388571 1.462857 11.702857 2.925714 20.48L234.057143 778.971429c-2.925714-29.257143-8.777143-54.125714-16.091429-71.68l8.777143-13.165715z m14.628572 45.348572h17.554285c0-19.017143-2.925714-36.571429-7.314285-51.2-4.388571 13.165714-8.777143 26.331429-11.702858 43.885714l1.462858 7.314286zM219.428571 770.194286l-10.24 5.851428c-2.925714-7.314286-5.851429-13.165714-10.24-20.48l10.24-5.851428c4.388571 5.851429 7.314286 13.165714 10.24 20.48zM153.6 714.605714l7.314286-11.702857c10.24 8.777143 19.017143 19.017143 23.405714 30.72V705.828571h11.702857v17.554286c4.388571-2.925714 8.777143-7.314286 16.091429-13.165714l7.314285 11.702857c-8.777143 4.388571-16.091429 8.777143-23.405714 11.702857V735.085714h24.868572v13.165715h-24.868572v29.257142h-11.702857v-29.257142h-26.331429v-13.165715H175.542857c-4.388571-7.314286-11.702857-14.628571-21.942857-20.48zM178.468571 755.5657140000001c-2.925714 7.314286-5.851429 13.165714-8.777142 19.017143l-11.702858-4.388571c2.925714-5.851429 5.851429-11.702857 8.777143-20.48l11.702857 5.851428zM194.56 645.851429c7.314286-4.388571 14.628571-8.777143 19.017143-11.702858l7.314286 11.702858c-4.388571 2.925714-10.24 5.851429-16.091429 8.777142 5.851429 7.314286 10.24 16.091429 13.165714 24.868572v13.165714H190.171429l2.925714 7.314286-13.165714 1.462857-2.925715-8.777143h-20.48v-13.165714h14.628572c-2.925714-5.851429-5.851429-11.702857-8.777143-19.017143 7.314286-2.925714 14.628571-5.851429 19.017143-8.777143-7.314286-4.388571-16.091429-7.314286-27.794286-10.24l5.851429-13.165714c14.628571 5.851429 26.331429 11.702857 35.108571 17.554286z m-16.091429 21.942857c2.925714 4.388571 4.388571 8.777143 5.851429 13.165714h21.942857c-2.925714-7.314286-7.314286-13.165714-13.165714-19.017143-4.388571 1.462857-8.777143 4.388571-14.628572 5.851429zM332.068571 629.76c8.777143 20.48 14.628571 43.885714 16.091429 71.68h24.868571v-16.091429H351.085714v-54.125714h11.702857v7.314286h33.645715v-7.314286h13.165714v54.125714h-21.942857v16.091429h29.257143v14.628571h-29.257143v16.091429h24.868571V773.12H336.457143V720.457143c0-32.182857-4.388571-59.977143-14.628572-80.457143l10.24-10.24z m64.365715 40.96v-20.48h-33.645715v20.48h33.645715z m-46.811429 87.771429h49.737143v-14.628572h-49.737143v14.628572z m0-40.96v13.165714h24.868572v-16.091429h-24.868572v2.925715zM286.72 694.125714l2.925714-14.628571c5.851429 2.925714 11.702857 4.388571 14.628572 5.851428v-35.108571c0-4.388571-1.462857-5.851429-4.388572-5.851429-2.925714 0-5.851429 0-10.24 1.462858l2.925715-14.628572h11.702857c8.777143 0 13.165714 5.851429 13.165714 16.091429v43.885714l11.702857 7.314286v14.628571c-2.925714-1.462857-7.314286-4.388571-11.702857-7.314286v27.794286h11.702857v14.628572h-11.702857v29.257142h-13.165714v-29.257142h-16.091429v-14.628572h16.091429v-33.645714c-5.851429-1.462857-11.702857-4.388571-17.554286-5.851429zM539.794286 707.291429l8.777143 11.702857c-20.48 13.165714-33.645714 32.182857-40.96 57.051428l-11.702858-7.314285c8.777143-24.868571 23.405714-45.348571 43.885715-61.44zM454.948571 735.085714c5.851429 8.777143 13.165714 19.017143 19.017143 32.182857l-11.702857 7.314286c-5.851429-11.702857-11.702857-21.942857-17.554286-30.72-7.314286-10.24-16.091429-17.554286-24.868571-23.405714l7.314286-13.165714c13.165714 10.24 21.942857 19.017143 27.794285 27.794285zM440.32 701.44h26.331429c-2.925714-13.165714-7.314286-24.868571-11.702858-33.645714-5.851429-8.777143-14.628571-17.554286-27.794285-24.868572l8.777143-11.702857c13.165714 8.777143 23.405714 19.017143 30.72 30.72 5.851429 10.24 10.24 23.405714 13.165714 40.96h35.108571c-1.462857-26.331429-2.925714-40.96-4.388571-48.274286-2.925714-7.314286-7.314286-10.24-16.091429-10.24h-23.405714l2.925714-14.628571h26.331429c7.314286 0 13.165714 2.925714 16.091428 8.777143 2.925714 4.388571 5.851429 13.165714 7.314286 26.331428 1.462857 13.165714 2.925714 30.72 2.925714 49.737143h-87.771428v-13.165714zM604.16 631.222857c13.165714 20.48 20.48 48.274286 21.942857 81.92h23.405714v-83.382857h13.165715v83.382857h19.017143v14.628572h-55.588572V752.64c19.017143 1.462857 36.571429 4.388571 52.662857 10.24l-7.314285 13.165714c-17.554286-7.314286-36.571429-10.24-58.514286-11.702857v-52.662857c-1.462857-30.72-7.314286-54.125714-19.017143-71.68l10.24-8.777143zM558.811429 666.3314290000001c7.314286 11.702857 11.702857 24.868571 17.554285 39.497142v-76.068571h13.165715v80.457143c2.925714-4.388571 7.314286-11.702857 11.702857-20.48l7.314285 11.702857c-5.851429 8.777143-13.165714 17.554286-19.017142 24.868571v7.314286h17.554285v14.628572h-17.554285v29.257142h-13.165715v-30.72H555.885714v-14.628571h19.017143c-4.388571-19.017143-11.702857-35.108571-21.942857-49.737143l5.851429-16.091428zM368.64 98.74285699999996h308.662857c29.257143 0 54.125714 23.405714 54.125714 54.125714V360.594286c0 29.257143-23.405714 52.662857-54.125714 52.662857H368.64c-29.257143 0-54.125714-23.405714-54.125714-52.662857v-207.725715c0-29.257143 24.868571-54.125714 54.125714-54.125714z m-29.257143 258.925714c0 19.017143 14.628571 33.645714 33.645714 33.645715H672.914286c19.017143 0 33.645714-14.628571 33.645714-33.645715v-201.874285c0-19.017143-14.628571-33.645714-33.645714-33.645715H373.028571c-19.017143 0-33.645714 14.628571-33.645714 33.645715V357.66857100000004zM393.508571 259.657143c2.925714 0 5.851429 0 10.24 1.462857l35.108572-39.497143c-2.925714-4.388571-4.388571-10.24-4.388572-16.091428 0-19.017143 14.628571-33.645714 33.645715-33.645715s33.645714 14.628571 33.645714 33.645715c0 7.314286-2.925714 14.628571-5.851429 19.017142l57.051429 59.977143c5.851429-5.851429 14.628571-8.777143 23.405714-8.777143h7.314286l42.422857-57.051428c-4.388571-5.851429-7.314286-13.165714-7.314286-20.48 0-19.017143 14.628571-33.645714 33.645715-33.645714 19.017143 0 33.645714 14.628571 33.645714 33.645714 0 19.017143-14.628571 33.645714-33.645714 33.645714-4.388571 0-8.777143-1.462857-11.702857-2.925714L599.771429 284.525714c7.314286 5.851429 10.24 14.628571 10.24 24.868572 0 19.017143-14.628571 33.645714-33.645715 33.645714-19.017143 0-33.645714-14.628571-33.645714-33.645714 0-2.925714 0-5.851429 1.462857-8.777143L482.742857 236.25142900000003c-4.388571 1.462857-8.777143 2.925714-13.165714 2.925714-5.851429 0-11.702857-1.462857-16.091429-4.388572l-32.182857 35.108572c5.851429 5.851429 8.777143 13.165714 8.777143 21.942857 0 19.017143-14.628571 33.645714-33.645714 33.645714s-33.645714-14.628571-33.645715-33.645714 11.702857-32.182857 30.72-32.182857z m245.76-49.737143s1.462857 0 1.462858 1.462857c2.925714 1.462857 4.388571 2.925714 8.777142 2.925714 8.777143 0 16.091429-7.314286 16.091429-16.091428s-7.314286-16.091429-16.091429-16.091429c-8.777143 0-16.091429 7.314286-16.091428 16.091429 1.462857 4.388571 2.925714 8.777143 5.851428 11.702857z m-64.365714 114.102857c8.777143 0 16.091429-7.314286 16.091429-16.091428s-7.314286-16.091429-16.091429-16.091429c-8.777143 0-16.091429 7.314286-16.091428 16.091429 0 10.24 7.314286 16.091429 16.091428 16.091428z m-122.88-118.491428c0 8.777143 7.314286 16.091429 16.091429 16.091428 2.925714 0 5.851429-1.462857 8.777143-2.925714l1.462857-1.462857c2.925714-2.925714 5.851429-7.314286 5.851428-11.702857 0-8.777143-7.314286-16.091429-16.091428-16.091429-8.777143 1.462857-16.091429 7.314286-16.091429 16.091429z m-73.142857 87.771428c0 8.777143 7.314286 16.091429 16.091429 14.628572 8.777143 0 16.091429-7.314286 14.628571-16.091429 0-8.777143-7.314286-16.091429-16.091429-14.628571-8.777143 0-14.628571 7.314286-14.628571 16.091428zM667.062857 70.94857100000002H380.342857c-4.388571 0-7.314286-4.388571-7.314286-10.24 0-5.851429 2.925714-11.702857 7.314286-13.165714h286.72c4.388571 0 7.314286 4.388571 7.314286 10.24 1.462857 5.851429-1.462857 11.702857-7.314286 13.165714zM634.88 16.822857H413.988571c-4.388571 0-8.777143-5.851429-8.777142-11.702857s4.388571-11.702857 8.777142-11.702857h220.891429c4.388571 0 8.777143 5.851429 8.777143 11.702857s-4.388571 11.702857-8.777143 11.702857z"  horiz-adv-x="1024" />

    
    <glyph glyph-name="shuaxin" unicode="&#58907;" d="M555.75223209 817.54484522L555.75223209 817.54484522l111.36931803-111.36931804 0 0c11.93242693-11.93242693 15.90990258-23.86485386 15.90990257-39.77475645 0-15.90990258-7.95495128-31.81980516-15.90990257-39.77475643l0 0-111.36931803-111.36931804 0 0c-11.93242693-11.93242693-23.86485386-15.90990258-39.77475644-15.90990258-31.81980516 0-55.68465902 23.86485386-55.68465902 55.68465901C460.29281663 570.94135527 464.27029227 582.87378221 476.2027192 594.80620914l0 0 15.90990258 15.90990258C436.42796277 602.76116043 392.67573067 582.87378221 356.87844988 547.07650141 309.14874215 499.34679368 285.28388828 443.66213466 289.26136393 384l0 0c0-31.81980516-23.86485386-55.68465902-55.68465902-55.68465902-31.81980516 0-55.68465902 23.86485386-55.68465902 55.68465902l0 0C177.89204589 471.50446418 209.71185104 559.00892834 277.32893699 626.6260143c59.66213466 59.66213466 139.21164755 91.48193981 214.78368479 95.45941546L476.2027192 737.99533233l0 0c-11.93242693 11.93242693-15.90990258 23.86485386-15.90990257 39.77475645 0 31.81980516 23.86485386 55.68465902 55.68465902 55.68465901C527.90990258 837.43222343 543.81980516 829.47727214 555.75223209 817.54484522zM563.70718337 212.96854730999996c0-15.90990258-7.95495128-31.81980516-15.90990257-39.77475645l0 0L535.86485386 161.26136393000002C587.57203723 165.23883956999998 631.32426933 185.12621779000006 667.12155012 220.92349859c43.75223209 43.75223209 67.61708595 99.43689111 63.63961031 159.09902576l0 0c0 31.81980516 23.86485386 55.68465902 55.68465902 55.68465902 31.81980516 0 55.68465902-23.86485386 55.68465902-55.68465902l0 0C846.10795411 296.49553582 814.28814896 208.99107166 746.67106301 141.37398570000005c-59.66213466-59.66213466-139.21164755-91.48193981-214.78368479-95.45941546l19.88737822-19.88737821 0 0c11.93242693-11.93242693 15.90990258-23.86485386 15.90990258-39.77475645 0-31.81980516-23.86485386-55.68465902-55.68465902-55.68465901C496.09009742-69.43222343000002 480.18019484-61.47727213999997 468.24776791-49.54484521999996l0 0-111.36931803 111.36931804 0 0c-11.93242693 11.93242693-15.90990258 23.86485386-15.90990257 39.77475645C340.96854731 117.50913185000002 344.94602294 129.44155878000004 356.87844988 141.37398570000005l0 0 111.36931803 111.36931804 0 0c11.93242693 11.93242693 23.86485386 15.90990258 39.77475644 15.90990258C539.84232951 268.65320632 563.70718337 244.78835245000005 563.70718337 212.96854730999996z"  horiz-adv-x="1024" />

    
    <glyph glyph-name="bofang" unicode="&#58972;" d="M512 810.666667C276.48 810.666667 85.333333 619.52 85.333333 384s191.146667-426.666667 426.666667-426.666667 426.666667 191.146667 426.666667 426.666667S747.52 810.666667 512 810.666667z m0-785.066667c-197.546667 0-358.4 160.853333-358.4 358.4s160.853333 358.4 358.4 358.4 358.4-160.853333 358.4-358.4-160.853333-358.4-358.4-358.4zM435.2 483.84v-199.68c0-22.186667 24.32-35.413333 43.093333-23.893333l166.4 101.973333c16.213333 9.813333 16.213333 33.706667 0 43.52l-166.4 101.973333c-18.773333 11.52-43.093333-1.706667-43.093333-23.893333z"  horiz-adv-x="1024" />

    
    <glyph glyph-name="-xiugaimima" unicode="&#59154;" d="M519.68 424.96c19.968 0 35.84 14.848 35.84 33.28s-15.872 33.28-35.84 33.28H216.576c-46.592 0-84.48-35.328-84.48-79.36v-353.792c0-43.52 37.888-79.36 84.48-79.36h580.096c46.592 0 84.48 35.328 84.48 78.848l1.536 187.904c0 11.776-6.656 23.04-17.92 29.184-11.264 6.144-24.576 6.144-35.84 0s-17.92-16.896-17.92-28.672l-1.536-188.416c0-3.072-1.536-6.144-4.096-8.704s-5.632-3.584-9.216-3.584H216.576c-7.168 0-13.312 5.632-13.312 12.288V412.672c0 6.656 5.632 12.288 13.312 12.288h303.104zM849.92 507.904c10.24 7.168 23.552 9.216 35.328 4.608 11.776-4.608 19.968-14.336 22.016-26.112 1.536-11.776-3.072-23.552-13.312-31.232l-351.744-258.56c-15.36-11.264-37.888-8.704-49.664 5.632-12.288 14.336-9.728 35.328 5.632 46.592L849.92 507.904z m-43.008 47.104c0-18.432-15.872-33.28-35.84-33.28s-35.84 14.848-35.84 33.28c0 111.616-96.768 201.728-215.552 201.728S304.128 666.112 304.128 555.008v-76.8c0-18.432-15.872-33.28-35.84-33.28s-35.84 14.848-35.84 33.28v76.8c0 148.48 128.512 268.288 287.232 268.288s287.232-120.32 287.232-268.288z"  horiz-adv-x="1024" />

    
    <glyph glyph-name="-fanhui1" unicode="&#59120;" d="M920.16918282 18.60332231999996s-8.29535522-21.35111314-19.32440705 0c0 0-123.44054155 372.48972884-424.28856624 278.69565565v-115.61651332s-4.80753541-67.96535354-64.10047213-23.70774814l-295.80482578 255.3649691s-62.73362382 34.12407486 3.81774871 80.83258067l298.96271668 256.8732155s44.96459588 32.05023607 55.75798422-20.50272456l0.3299289-124.76025713c0-0.0942654 560.737733-26.95990446 444.64989269-587.17917777z"  horiz-adv-x="1024" />

    
    <glyph glyph-name="-Save" unicode="&#58969;" d="M227.555556 753.777778a85.333333 85.333333 0 0 1-85.333334-85.333334v-568.888888a85.333333 85.333333 0 0 1 85.333334-85.333334h568.888888a85.333333 85.333333 0 0 1 85.333334 85.333334V668.444444a85.333333 85.333333 0 0 1-85.333334 85.333334H227.555556z m0 56.888889h568.888888a142.222222 142.222222 0 0 0 142.222223-142.222223v-568.888888a142.222222 142.222222 0 0 0-142.222223-142.222223H227.555556a142.222222 142.222222 0 0 0-142.222223 142.222223V668.444444a142.222222 142.222222 0 0 0 142.222223 142.222223zM284.444444 753.777778v-256h455.111112V753.777778h56.888888v-264.760889c0-26.567111-25.457778-48.128-56.888888-48.128H284.444444c-31.431111 0-56.888889 21.560889-56.888888 48.128V753.777778h56.888888zM625.777778 696.8888890000001m28.444444 0l0 0q28.444444 0 28.444445-28.444445l0-85.333333q0-28.444444-28.444445-28.444444l0 0q-28.444444 0-28.444444 28.444444l0 85.333333q0 28.444444 28.444444 28.444445Z"  horiz-adv-x="1024" />

    
    <glyph glyph-name="-zidongpaixu" unicode="&#59029;" d="M672.87961679 786.1990413c-15.08246403 15.08246403-15.08246403 35.19241559 1e-8 50.2748796s35.19241559 15.08246403 50.27487961-1e-8l145.79715277-150.82464028c15.08246403-15.08246403 15.08246403-35.19241559 0-50.27487962-15.08246403-15.08246403-35.19241559-15.08246403-50.27488106 0l-145.79715133 150.82464031zM843.81420866 695.7042571c20.10995154 0 35.19241559-15.08246403 35.19241557-35.19241705 0-20.10995154-15.08246403-35.19241559-35.19241557-35.19241557L180.18579134 625.31942448c-20.10995154 0-35.19241559 15.08246403-35.19241557 35.19241557 0 20.10995154 15.08246403 35.19241559 35.19241557 35.19241705l663.62841732 0zM215.37820693-18.199041299999976c0-20.10995154-15.08246403-35.19241559-35.19241559-35.19241557-20.10995154 0-35.19241559 15.08246403-35.19241557 35.19241557l0 522.85875352c0 20.10995154 15.08246403 35.19241559 35.19241557 35.1924156 20.10995154 0 35.19241559-15.08246403 35.19241558-35.1924156L215.37820693-18.199041299999976zM441.61516736-18.199041299999976c0-20.10995154-15.08246403-35.19241559-35.19241557-35.19241557-20.10995154 0-35.19241559 15.08246403-35.19241558 35.19241557l0 522.85875352c0 20.10995154 15.08246403 35.19241559 35.19241558 35.1924156 20.10995154 0 35.19241559-15.08246403 35.19241557-35.1924156L441.61516736-18.199041299999976zM662.82464031-18.199041299999976c0-20.10995154-15.08246403-35.19241559-35.1924156-35.19241557-20.10995154 0-35.19241559 15.08246403-35.19241704 35.19241557l0 522.85875352c0 20.10995154 15.08246403 35.19241559 35.19241704 35.1924156 20.10995154 0 35.19241559-15.08246403 35.1924156-35.1924156L662.82464031-18.199041299999976zM879.00662423-18.199041299999976c0-20.10995154-15.08246403-35.19241559-35.19241557-35.19241557s-35.19241559 15.08246403-35.19241559 35.19241557l1e-8 522.85875352c0 20.10995154 15.08246403 35.19241559 35.19241558 35.1924156s35.19241559-15.08246403 35.19241557-35.1924156L879.00662423-18.199041299999976z"  horiz-adv-x="1024" />

    
    <glyph glyph-name="-fangwenliang" unicode="&#59153;" d="M512 863.744c-265.216 0-480.256-215.04-480.256-480.256s215.04-480.256 480.256-480.256 480.256 215.04 480.256 480.256-215.04 480.256-480.256 480.256z m92.672-685.568H443.392V429.568H352.256l172.544 160.256 170.496-160.256h-91.648l1.024-251.392z"  horiz-adv-x="1024" />

    
    <glyph glyph-name="-tongzhiguanli" unicode="&#59152;" d="M514.33016889 786.53667555v32.62236445c0 17.47626667-13.98101333 31.45728-31.45728 31.45728s-30.87473778-13.98101333-30.87473778-31.45728v-32.62236445c-174.18012445-15.72864-311.66008889-162.52928-311.66008889-339.62211555v-315.73788445H77.42350222c-11.06830222 0-20.38897778-5.24288-26.79694222-14.56355555-4.07779555-5.82542222-5.24288-18.05880889-0.58254222-26.2144 5.82542222-9.32067555 15.72864-15.72864 26.79694222-15.72864h534.77376c-13.39847111 19.22389333-23.30168889 33.78744889-30.87473778 55.34151111H197.4272V452.73998222c0 146.21809778 114.17827555 266.80433778 259.23128889 280.20280889 0 0 12.23338667 1.16508445 25.63185778 1.16508444 13.39847111 0 25.63185778-1.16508445 25.63185778-1.16508444 144.47047111-12.81592889 259.23128889-133.98471111 259.23128888-280.20280889v-13.39847111c19.22389333 2.91271111 38.44778667 3.49525333 58.83676445 1.74762667v5.82542222c0 177.09283555-137.47996445 323.89347555-311.66008889 339.62211555zM482.87288889-82.03377778000004c-25.04931555 0-48.93354667 9.90321778-66.40981334 27.37948445s-27.37948445 41.36049778-27.37948444 65.82727111h188.16113778c0-25.04931555-9.90321778-48.35100445-27.37948444-65.82727111-18.05880889-17.47626667-41.94304-27.37948445-66.99235556-27.37948445zM947.74158222 206.90716444999998c0-8.73813333-1.16508445-15.14609778-1.16508444-15.14609778-0.58254222-5.82542222 2.91271111-12.81592889 7.57304889-15.72864l19.22389333-11.06830222c5.24288-2.91271111 6.99050667-9.32067555 4.07779555-14.56355556l-36.70016-63.49710222c-2.91271111-5.24288-9.90321778-6.99050667-15.14609777-4.07779556l-19.22389333 11.06830222c-5.82542222 2.91271111-12.81592889 2.33016889-18.0588089-1.16508444 0 0-5.24288-4.07779555-12.81592888-8.15559111-7.57304889-4.07779555-13.98101333-6.99050667-13.98101334-6.99050667-5.82542222-2.91271111-9.90321778-8.15559111-9.90321778-14.56355556v-22.13660444c0-5.82542222-4.66033778-10.48576-11.06830222-10.48576h-73.98286222c-5.82542222 0-11.06830222 4.66033778-11.06830222 10.48576v22.13660444c-0.58254222 6.40796445-4.07779555 12.23338667-9.90321778 14.56355556 0 0-6.99050667 2.91271111-14.56355556 6.99050667s-12.23338667 8.15559111-12.23338666 8.15559111c-5.24288 3.49525333-12.23338667 4.07779555-18.05880889 1.16508444l-19.80643555-11.06830222c-5.24288-2.91271111-11.65084445-1.16508445-14.56355556 4.07779556l-37.28270222 63.49710222c-2.91271111 5.24288-1.16508445 11.65084445 4.07779555 14.56355556l19.22389333 11.06830222c5.24288 3.49525333 8.15559111 9.32067555 7.5730489 15.72864 0 0-1.16508445 6.40796445-1.16508445 15.14609778s1.16508445 15.14609778 1.16508445 15.14609777c0.58254222 6.40796445-2.33016889 12.23338667-7.5730489 15.72864l-19.22389333 11.06830223c-5.24288 2.91271111-6.99050667 9.32067555-4.07779555 14.56355555l37.28270222 63.49710222c2.91271111 5.24288 9.90321778 6.99050667 14.56355556 4.07779556l19.22389333-11.06830223c5.24288-2.91271111 13.39847111-2.33016889 18.05880889 1.16508445 0 0 5.24288 4.07779555 12.81592888 8.15559111 7.57304889 4.07779555 13.98101333 6.99050667 13.98101334 6.99050667 5.82542222 2.91271111 9.90321778 8.15559111 9.90321778 14.56355555v22.13660445c0 5.82542222 4.66033778 10.48576 11.06830222 10.48576h73.98286222c5.82542222 0 11.06830222-4.66033778 11.06830222-10.48576v-22.13660445c0-5.82542222 4.66033778-12.23338667 9.90321778-14.56355555 0 0 6.40796445-2.33016889 13.98101334-6.99050667 7.57304889-4.07779555 12.81592889-8.15559111 12.81592888-8.15559111 4.66033778-3.49525333 12.81592889-4.07779555 18.05880889-1.16508445l19.22389333 11.06830223c5.24288 2.91271111 11.65084445 1.16508445 15.14609778-4.07779556l37.28270222-63.49710222c2.91271111-5.24288 1.16508445-11.65084445-4.07779555-14.56355555l-19.22389333-11.06830223c-5.24288-3.49525333-8.15559111-9.32067555-7.57304889-15.72864 0 0 1.16508445-6.40796445 1.16508444-15.14609777z m-143.88792889-58.83676445c32.62236445 0 59.41930667 26.2144 60.00184889 58.83676445 0 32.62236445-26.79694222 58.83676445-60.00184889 58.83676444-32.62236445 0-59.41930667-26.2144-60.00184888-58.83676444 0-32.62236445 26.79694222-58.83676445 60.00184888-58.83676445z"  horiz-adv-x="1024" />

    
    <glyph glyph-name="-gonggaotongzhiguanli" unicode="&#59151;" d="M542.72 849.92L276.48 675.84H143.36C10.24 679.424 10.24 583.6800000000001 10.24 542.72v-266.24c0-30.72 14.848-72.704 41.984-94.208 27.648-17.408 50.176-28.672 91.136-28.672h133.12l184.32-112.64c-12.8 27.648-21.504 55.808-26.112 83.968l-145.92 87.552-116.224-1.536c-33.28 0-57.344 5.632-76.8 18.944-25.088 16.896-30.72 52.736-30.72 77.824V525.312c0 33.28 0 66.56 23.552 83.456 15.36 12.8 54.272 10.752 80.896 10.752l120.32-1.024 224.256 144.896c34.304 25.088 35.328 12.288 35.328-20.992l-3.584-337.92c17.92 13.824 37.376 25.6 58.368 35.84V808.96c0 40.96-30.72 51.2-61.44 40.96zM860.16 696.3199999999999c44.032-56.832 102.912-134.656 102.4-286.72v-20.48c20.48-20.48 34.816-31.744 55.296-62.464 7.68 47.104 9.728 68.608 9.728 101.376 0 103.936-32.768 184.832-67.584 243.2C928.768 722.432 901.12 747.52 880.64 768c0 0-22.528 25.088-48.128-2.048-13.312-16.384-7.68-36.864 7.168-49.152l20.48-20.48zM737.28 542.72c10.24-20.48 15.872-35.328 20.48-61.44 20.48 0 40.96 0 71.68-10.24-5.12 44.032-16.896 73.216-30.72 102.4-14.848 29.696-30.72 51.2-40.96 61.44s-32.256 17.408-51.2 0c-10.24-10.24-10.24-30.72 0-40.96s20.48-30.72 30.72-51.2zM983.552 217.08799999999997c-3.072 16.896-16.896 30.72-30.208 30.72h-3.072c-30.208 0-53.248 24.064-53.248 54.272 0 6.656 3.072 16.896 3.072 19.968 6.656 16.896 0 37.376-13.312 47.616l-59.904 33.792h-16.896c-9.728 0-23.552-3.072-30.208-13.824-6.656-7.168-26.624-24.064-39.936-24.064-13.312 0-33.28 16.896-43.008 24.064-6.656 6.656-16.896 13.824-30.208 13.824-6.656 0-9.728 0-13.312-3.072l-63.488-33.792c-13.312-10.24-19.968-30.72-13.312-47.616 0 0 3.072-10.24 3.072-19.968 0.512-29.184-22.528-53.76-51.712-54.272H523.264c-13.312 0-26.624-13.824-30.208-30.72 0-3.072-6.656-27.136-6.656-50.688 0-19.968 3.072-47.616 6.656-50.688 3.072-16.896 16.384-30.72 30.208-30.72h3.072c30.208 0 53.248-24.064 53.248-54.272 0-6.656-3.072-16.896-3.072-19.968-6.656-16.896 0-36.864 13.312-47.616l59.904-33.792c6.656 3.072 9.728 3.072 16.896 3.072 9.728 0 23.552 3.072 30.208 13.824 6.656 6.656 26.624 27.136 43.008 27.136 13.312 0 36.352-16.896 43.008-27.136 6.656-7.168 16.896-13.824 30.208-13.824 6.656 0 9.728 0 16.384 3.072l59.904 33.792c13.312 10.24 19.968 30.72 13.312 47.616 0 0-3.072 10.24-3.072 19.968 0 30.72 23.552 54.272 53.248 54.272h3.072c13.312 0 26.624 13.824 30.208 30.72 0 0 6.656 27.136 6.656 50.688-6.144 16.896-9.216 44.032-9.216 47.616z m-38.912-88.064c-52.224-7.168-91.136-49.664-91.136-106.496 0-10.752 3.072-25.088 7.168-32.256l-45.056-25.088-17.408 17.92c-20.992 14.336-37.888 20.992-59.392 20.992-17.408 0-37.888-7.168-59.392-20.992-7.168-7.168-14.336-10.752-17.408-17.92l-41.984 25.088c3.072 7.168 7.168 20.992 7.168 32.256 0 53.76-38.912 99.328-91.136 106.496 0 7.168-3.072 20.992-3.072 35.328 0 10.752 3.072 25.088 3.072 35.328 52.224 7.168 91.136 50.176 91.136 106.496 0 10.752-3.072 25.088-7.168 32.256l45.056 25.088c3.072-3.584 10.24-10.752 17.408-14.336 20.48-14.336 37.888-20.992 55.808-20.992 17.408 0 34.816 7.168 55.296 20.992 7.168 7.168 14.336 10.752 17.408 14.336l45.056-25.088c-3.072-7.168-7.168-20.992-7.168-32.256 0-53.76 38.912-99.328 91.136-106.496 0-7.168 3.072-20.992 3.072-35.328 5.632-10.24 1.536-24.576 1.536-35.328zM829.44 180.22400000000005c-6.144 40.448-36.352 71.168-73.216 77.824-63.488 13.824-120.32-44.032-106.496-111.616 6.656-36.864 36.352-67.584 73.216-74.752 63.488-13.824 120.32 43.52 106.496 108.544z m-98.816-67.072c-19.968 3.584-36.352 20.992-39.936 40.96-7.168 37.376 23.552 69.12 58.368 61.952 19.968-3.584 36.352-20.992 39.936-43.008 7.168-35.84-24.064-67.584-58.368-59.904z"  horiz-adv-x="1034" />

    
    <glyph glyph-name="-fanhui" unicode="&#59020;" d="M512-128C229.233778-128 0 101.23377800000003 0 384S229.233778 896 512 896s512-229.233778 512-512-229.233778-512-512-512z m0 51.2c254.492444 0 460.8 206.307556 460.8 460.8S766.492444 844.8 512 844.8 51.2 638.492444 51.2 384 257.507556-76.79999999999995 512-76.79999999999995z m62.833778 563.996444c55.011556-14.620444 100.920889-40.220444 136.277333-76.145777 54.414222-55.324444 81.066667-132.551111 79.473778-228.977778a24.746667 24.746667 0 0 0-22.499556-24.234667l-2.247111-0.113778a24.718222 24.718222 0 0 0-24.206222 19.740445 123.562667 123.562667 0 0 1-8.419556 23.239111 188.529778 188.529778 0 0 1-34.958222 51.313778c-43.235556 45.511111-109.710222 71.68-193.621333 75.946666v-96.796444a24.746667 24.746667 0 0 0-39.253333-20.024889l-256.142223 185.685333a24.746667 24.746667 0 0 0-0.056889 40.021334l256.142223 186.538666a24.746667 24.746667 0 0 0 39.310222-19.996444v-104.504889c21.703111-1.479111 45.511111-5.12 70.200889-11.690667z m-119.665778-133.916444c0 13.653333 11.064889 24.746667 24.746667 24.746667 60.615111 0 114.602667-9.585778 160.398222-28.558223a275.086222 275.086222 0 0 0 85.048889-54.556444c-10.922667 31.829333-27.477333 59.022222-49.521778 81.436444-30.520889 31.004444-69.774222 51.484444-114.204444 63.146667a312.376889 312.376889 0 0 1-77.795556 10.695111h-2.332444l-0.711112-0.028444a24.746667 24.746667 0 0 0-25.628444 24.718222v79.900444l-189.326222-137.870222 189.326222-137.244444V353.28z"  horiz-adv-x="1024" />

    
    <glyph glyph-name="-sandiantu" unicode="&#59150;" d="M468.48 286.20799999999997c-54.272 0-102.4 47.616-102.4 102.4s47.616 102.4 102.4 102.4 102.4-47.616 102.4-102.4-48.128-102.4-102.4-102.4z m0 136.192c-20.48 0-34.304-13.824-34.304-34.304s13.824-34.304 34.304-34.304 34.304 13.824 34.304 34.304-13.824 34.304-34.304 34.304zM325.632 660.48c47.616 20.48 95.232 34.304 142.848 34.304 81.92 0 156.672-34.304 210.944-81.92 20.48 13.824 40.96 20.48 68.096 27.136-68.096 75.264-163.328 122.88-272.384 122.88-68.096 0-129.536-20.48-183.808-47.616C297.984 701.44 318.464 680.96 325.632 660.48z m415.232-415.232c-54.272-95.232-150.016-163.328-272.384-163.328-20.48 0-47.616 0-68.096 6.656-6.656-20.48-20.48-40.96-34.304-61.44 27.136-6.656 68.096-13.824 102.4-13.824 156.672 0 286.208 95.232 347.136 224.768h-20.48c-19.968 0.512-40.448 7.168-54.272 7.168z m-565.248 61.44c-6.656 27.136-13.824 54.272-13.824 81.92 0 27.136 6.656 54.272 13.824 81.92-27.136 6.656-47.616 13.824-61.44 34.304-13.824-40.96-20.48-74.752-20.48-115.712s6.656-88.576 20.48-122.368l61.44 39.936zM325.632 660.48c-6.656 20.48-27.136 40.96-40.96 54.272-27.136 13.824-47.616 20.48-81.92 20.48C128 735.744 66.56 674.304 66.56 599.552c0-40.96 13.824-74.752 40.96-95.232 20.48-13.824 40.96-27.136 61.44-34.304 6.656 0 20.48-6.656 34.304-6.656 74.752 0 136.192 61.44 136.192 136.192-0.512 20.48-0.512 40.96-13.824 60.928z m-122.88-129.024c-27.136 0-54.272 20.48-61.44 40.96 0 6.656-6.656 20.48-6.656 27.136 0 40.96 27.136 68.096 68.096 68.096h13.824c27.136-6.656 47.616-20.48 54.272-47.616 0-6.656 6.656-13.824 6.656-20.48-6.656-34.304-33.792-68.096-74.752-68.096z m34.304-218.112c-20.48 0-40.96-6.656-61.44-13.824s-40.96-20.48-61.44-40.96c-27.136-27.136-47.616-74.752-47.616-115.712 0-95.232 74.752-170.496 170.496-170.496 47.616 0 95.232 20.48 122.368 54.272 13.824 20.48 27.136 40.96 34.304 61.44s6.656 34.304 6.656 54.272c6.656 96.256-68.096 171.008-163.328 171.008zM291.328 61.440000000000055c-13.824-6.656-34.304-13.824-54.272-13.824-54.272 0-102.4 47.616-102.4 102.4 0 20.48 6.656 34.304 13.824 47.616 13.824 20.48 27.136 40.96 54.272 47.616 13.824 6.656 27.136 6.656 40.96 6.656 54.272 0 102.4-47.616 102.4-102.4 0-13.824 0-20.48-6.656-34.304-13.824-26.624-27.648-47.104-48.128-53.76zM788.48 647.168c-13.824 0-34.304 0-47.616-6.656-27.136-6.656-47.616-13.824-68.096-27.136-54.272-34.304-88.576-95.232-88.576-170.496 0-95.232 61.44-170.496 150.016-197.632 20.48-6.656 34.304-6.656 54.272-6.656h20.48c102.4 13.824 183.808 95.232 183.808 204.288 0 115.712-88.576 204.288-204.288 204.288z m47.616-333.824c-13.824-6.656-27.136-6.656-40.96-6.656H768c-61.44 13.824-109.056 68.096-109.056 136.192 0 47.616 27.136 95.232 68.096 115.712 20.48 13.824 40.96 20.48 68.096 20.48 74.752 0 136.192-61.44 136.192-136.192-6.656-61.44-40.448-109.056-95.232-129.536z"  horiz-adv-x="1024" />

    
    <glyph glyph-name="-zhuzhuang" unicode="&#58884;" d="M928.63 3.830000000000041H95.37a35 35 0 0 1 0-70h833.26a35 35 0 0 1 0 70z m-797.29 55.99h157.49a35 35 0 0 1 35 35V510.71a35 35 0 0 1-35 35H131.34a35 35 0 0 1-35-35v-415.89a35 35 0 0 1 35-35z m35 415.89h87.49v-345.89h-87.49z m284.9-415.89h157.49a35 35 0 0 1 35 35v703a35 35 0 0 1-35 35H451.24a35 35 0 0 1-35-35v-703a35 35 0 0 1 35-35z m35 703h87.49v-633h-87.49z m442.39-77.33H771.14a35 35 0 0 1-35-35v-555.67a35 35 0 0 1 35-35h157.49a35 35 0 0 1 35 35V650.49a35 35 0 0 1-35 35z m-35-555.67h-87.49V615.49h87.49z"  horiz-adv-x="1024" />

    
    <glyph glyph-name="-baocuncunchu" unicode="&#58991;" d="M860.7 511.6L639.6 732.7c-11.1 11.1-26 17.3-41.7 17.3H205c-32.5 0-59-26.5-59-59v-614c0-32.5 26.5-59 59-59h614c32.5 0 59 26.5 59 59V469.8c0 15.8-6.1 30.6-17.3 41.8zM488.5 703.5v-86.8c0-7.2-5.8-13-13-13H322.4c-7.2 0-13 5.8-13 13v86.8h179.1zM316.3 64V401.6c0 7.2 5.8 13 13 13h365.3c7.2 0 13-5.8 13-13V64H316.3zM832 77c0-7.2-5.8-13-13-13h-65.3V401.6c0 32.5-26.5 59-59 59H329.3c-32.5 0-59-26.5-59-59V64H205c-7.2 0-13 5.8-13 13V691c0 7.2 5.8 13 13 13h58.4v-87.3c0-32.5 26.5-59 59-59h153.1c32.5 0 59 26.5 59 59V704h63.4c3.5 0 6.7-1.4 9.2-3.8L828.2 479c2.5-2.5 3.8-5.7 3.8-9.2V77z"  horiz-adv-x="1024" />

    
    <glyph glyph-name="-yonghuguanli" unicode="&#59149;" d="M980.48 214.01599999999996c-3.072 16.896-16.896 30.72-30.208 30.72h-3.072c-30.208 0-53.248 24.064-53.248 54.272 0 6.656 3.072 16.896 3.072 19.968 6.656 16.896 0 37.376-13.312 47.616l-59.904 33.792h-16.896c-9.728 0-23.552-3.072-30.208-13.824-6.656-7.168-26.624-24.064-39.936-24.064-13.312 0-33.28 16.896-43.008 24.064-6.656 6.656-16.896 13.824-30.208 13.824-6.656 0-9.728 0-13.312-3.072l-63.488-33.792c-13.312-10.24-19.968-30.72-13.312-47.616 0 0 3.072-10.24 3.072-19.968 0.512-29.184-22.528-53.76-51.712-54.272H520.192c-13.312 0-26.624-13.824-30.208-30.72 0-3.072-6.656-27.136-6.656-50.688 0-19.968 3.072-47.616 6.656-50.688 3.072-16.896 16.384-30.72 30.208-30.72h3.072c30.208 0 53.248-24.064 53.248-54.272 0-6.656-3.072-16.896-3.072-19.968-6.656-16.896 0-36.864 13.312-47.616l59.904-33.792c6.656 3.072 9.728 3.072 16.896 3.072 9.728 0 23.552 3.072 30.208 13.824 6.656 6.656 26.624 27.136 43.008 27.136 13.312 0 36.352-16.896 43.008-27.136 6.656-7.168 16.896-13.824 30.208-13.824 6.656 0 9.728 0 16.384 3.072l59.904 33.792c13.312 10.24 19.968 30.72 13.312 47.616 0 0-3.072 10.24-3.072 19.968 0 30.72 23.552 54.272 53.248 54.272h3.072c13.312 0 26.624 13.824 30.208 30.72 0 0 6.656 27.136 6.656 50.688-6.144 16.896-9.216 44.032-9.216 47.616z m-38.912-88.064c-52.224-7.168-91.136-49.664-91.136-106.496 0-10.752 3.072-25.088 7.168-32.256l-45.056-25.088-17.408 17.92c-20.992 14.336-37.888 20.992-59.392 20.992-17.408 0-37.888-7.168-59.392-20.992-7.168-7.168-14.336-10.752-17.408-17.92l-41.984 25.088c3.072 7.168 7.168 20.992 7.168 32.256 0 53.76-38.912 99.328-91.136 106.496 0 7.168-3.072 20.992-3.072 35.328 0 10.752 3.072 25.088 3.072 35.328 52.224 7.168 91.136 50.176 91.136 106.496 0 10.752-3.072 25.088-7.168 32.256l45.056 25.088c3.072-3.584 10.24-10.752 17.408-14.336 20.48-14.336 37.888-20.992 55.808-20.992 17.408 0 34.816 7.168 55.296 20.992 7.168 7.168 14.336 10.752 17.408 14.336l45.056-25.088c-3.072-7.168-7.168-20.992-7.168-32.256 0-53.76 38.912-99.328 91.136-106.496 0-7.168 3.072-20.992 3.072-35.328 5.632-10.24 1.536-24.576 1.536-35.328zM460.288 853.504c-133.632 0-242.176-110.08-242.176-246.272s108.544-246.272 242.176-246.272c133.632 0 242.176 110.08 242.176 246.272-0.512 135.68-108.544 246.272-242.176 246.272z m0-442.88c-106.496 0-193.024 88.064-193.024 196.608C266.752 715.7760000000001 353.28 803.84 460.288 803.84s193.024-88.064 193.024-196.608-86.528-196.608-193.024-196.608zM55.296-23.55200000000002c11.264 0 34.304 9.216 34.816 20.48 5.12 186.368 169.984 351.232 368.64 363.008 11.264 0.512 2.048 17.92 2.048 29.184 0 12.288-3.584 20.992-15.36 20.48-218.112-11.264-399.36-188.416-410.624-410.624-1.024-12.288 8.192-22.528 20.48-22.528zM439.808-23.55200000000002h-384c-11.264 0-20.48 9.216-20.48 20.48s9.216 32.256 20.48 32.256h384c11.264 0 24.064-8.192 24.064-26.112 0-14.336-12.8-26.624-24.064-26.624zM826.368 177.15200000000004c-6.144 40.448-36.352 71.168-73.216 77.824-63.488 13.824-120.32-44.032-106.496-111.616 6.656-36.864 36.352-67.584 73.216-74.752 63.488-13.824 120.32 44.032 106.496 108.544z m-98.816-67.072c-19.968 3.584-36.352 20.992-39.936 40.96-7.168 37.376 23.552 69.12 58.368 61.952 19.968-3.584 36.352-20.992 39.936-43.008 7.168-35.328-24.064-67.584-58.368-59.904z"  horiz-adv-x="1024" />

    
    <glyph glyph-name="-bumenguanli" unicode="&#58890;" d="M506.88 712.3199999999999c-35.2 0-63.36-28.16-63.36-63.36s28.16-63.36 63.36-63.36 63.36 28.16 63.36 63.36a63.936 63.936 0 0 1-63.36 63.36z m19.84-63.36c0-10.88-8.96-19.84-19.84-19.84-10.88 0-19.84 8.96-19.84 19.84s8.96 19.84 19.84 19.84c10.88 0 19.84-8.96 19.84-19.84zM365.44 596.48c11.52-1.28 19.84-4.48 24.32-10.88 9.6-12.16 7.04-34.56 5.76-40.96-1.92-9.6 1.92-19.2 10.24-23.68l44.16-24.96c8.32-4.48 18.56-3.2 25.6 3.2 10.88 10.24 21.76 16.64 30.08 16.64 12.8 0 21.76-12.16 23.04-14.72 3.84-6.4 10.88-10.24 18.56-10.24 3.2 0 7.04 0.64 10.24 2.56l51.2 26.88c8.96 5.12 13.44 15.36 10.88 25.6-3.84 12.16-6.4 27.52-0.64 36.48 6.4 8.32 21.76 9.6 26.88 9.6 6.4-0.64 11.52 1.92 16 5.76s7.04 9.6 7.04 16v70.4a21.76 21.76 0 0 1-20.48 21.76c-12.8-1.28-22.4 1.92-26.88 8.96-7.68 11.52-3.84 32-1.92 38.4a22.464 22.464 0 0 1-8.96 25.6l-44.8 28.16a21.632 21.632 0 0 1-28.16-4.48c-10.88-12.8-21.12-19.2-30.08-19.2-13.44 0-24.32 14.08-24.96 14.72a21.824 21.824 0 0 1-27.52 6.4l-48-24.96c-8.96-4.48-13.44-14.08-11.52-23.68 3.84-17.28 1.92-30.08-3.84-38.4-8.96-12.16-25.6-13.44-26.24-13.44-10.88-0.64-19.84-10.24-19.84-21.76v-64.64c0-10.88 8.96-20.48 19.84-21.12z m220.16 94.08c8.96-14.08 23.04-23.04 41.6-27.52v-32c-13.44-1.92-30.72-8.96-42.24-24.32-10.88-14.72-14.72-33.92-10.24-56.96l-21.12-10.88c-8.96 7.68-24.96 19.2-47.36 19.2-16 0-32-5.76-48-17.92l-17.92 10.88c1.28 17.28-0.64 40.96-15.36 60.16-6.4 8.32-17.28 19.2-35.84 24.32v29.44c10.88 3.84 25.6 11.52 37.12 26.24 11.52 15.36 16.64 34.56 14.72 56.96l19.84 10.24c10.24-8.96 26.24-18.56 46.72-18.56 17.28 0 34.56 7.04 49.92 21.12l17.28-10.88c-2.56-16.64-2.56-40.32 10.88-59.52zM913.92 249.60000000000002h-78.08V376.32000000000005c0 39.04-32 71.04-71.04 71.04H261.76c-39.04 0-71.04-32-71.04-71.04v-126.72H110.08c-25.6 0-46.08-20.48-46.08-46.08v-199.68c0-25.6 20.48-46.08 46.08-46.08h199.04c25.6 0 46.08 20.48 46.08 46.08v199.68c0 25.6-20.48 46.08-46.08 46.08H234.24V376.32000000000005c0 15.36 12.16 27.52 27.52 27.52h503.04c15.36 0 27.52-12.16 27.52-27.52v-126.72h-78.08c-25.6 0-46.08-20.48-46.08-46.08v-199.68c0-25.6 20.48-46.08 46.08-46.08h199.68c25.6 0 46.08 20.48 46.08 46.08v199.68c0 25.6-20.48 46.08-46.08 46.08z m2.56-46.08v-199.68c0-1.92-1.28-3.2-3.2-3.2h-199.68c-1.92 0-3.2 1.28-3.2 3.2v199.68c0 1.92 1.28 3.2 3.2 3.2h199.68c1.92-0.64 3.2-1.92 3.2-3.2z m-808.96 0c0 1.92 1.28 3.2 3.2 3.2h199.04c1.92 0 3.2-1.28 3.2-3.2v-199.68c0-1.92-1.28-3.2-3.2-3.2H110.08c-1.92 0-3.2 1.28-3.2 3.2v199.68z"  horiz-adv-x="1024" />

    
    <glyph glyph-name="-jiaoseguanli" unicode="&#59148;" d="M686.94752617 314.95951992000005c-30.58470791 15.29235352-61.16941494 30.58470791-91.30434786 40.47976055C671.65517265 401.7661169 722.47975995 482.72563711 722.47975995 574.47975996c0 142.12893516-111.99400312 254.12293828-254.12293827 254.12293828S214.23388339 716.60869599 214.23388339 574.47975996c0-101.64917549 55.77211406-183.0584707 142.12893516-228.48575713-147.52623691-50.82458731-259.07046503-188.00599658-269.41529267-355.77211377l50.82458818-4.94752588c15.29235352 198.35082422 183.0584707 345.42728614 380.95951992 330.13493174 50.82458731-4.94752588 96.70164961-15.29235352 137.18140928-40.47975966 5.39730176 14.84257852 15.74212852 30.13493291 31.03448291 40.02998466z m-218.5907045 56.22188906c-111.99400312 0-203.29835098 91.30434785-203.29835097 203.29835099S356.36281855 777.77811094 468.35682168 777.77811094s203.29835098-91.30434785 203.29835097-203.29835098-91.75412286-203.29835098-203.29835097-203.29835098zM905.53823066 401.7661169c-20.23988028 15.29235352-45.87706143 25.18740615-71.06446757 35.53223378C900.59070478 472.83058447 941.07046445 543.89505205 941.07046445 620.3568213799999c0 116.94152901-96.70164961 213.64317862-213.64317773 213.64317862-25.18740615 0-45.87706143-4.94752588-71.06446846-10.34482763 15.29235352-10.34482763 30.58470791-25.18740615 40.47976054-40.47975968h30.58470792c91.30434785 0 162.81859043-71.06446758 162.81859043-162.81859131 0-81.40929521-55.77211406-147.52623691-132.2338834-157.42128955-4.94752588-20.23988028-10.34482763-40.47976055-20.2398794-55.77211318h10.34482676c40.47976055-4.94752588 76.01199433-15.29235352 106.59670225-30.5847079 14.84257852 4.49775088 30.13493291 14.84257852 50.8245873 25.18740615zM855.61319336 220.95652207c-42.72863555 0-77.36131934-34.63268378-77.36131934-77.36131934 1.349325-42.72863555 36.88155878-76.46176934 79.61019522-75.56221934 41.37931055 0.89955 74.21289346 34.18290878 75.56221846 75.56221934 0 42.72863555-35.08245879 77.36131934-77.81109434 77.36131934z m35.53223379-79.16042022c-0.89955-19.34033028-16.1919044-34.63268378-35.53223379-35.53223378-20.68965528-0.89955-38.68065967 14.84257852-39.58020967 35.53223378-0.89955 20.68965528 14.84257852 38.68065967 35.53223378 39.58020967h4.04797589c21.13943028-1.349325 36.88155878-18.8905544 35.53223379-39.58020967zM1060.71064434 184.0749624c-2.69865088 15.29235352-12.59370352 25.18740615-25.18740616 25.18740615h-1.7991c-24.28785615 0-44.07796143 19.79010527-44.07796142 44.07796143 0 6.29685176 2.69865088 13.94302852 4.04797587 16.64167939 5.84707675 14.39280352 0.89955 30.58470791-12.14392763 39.13043467l-51.27436318 28.33583203c-13.04347852 5.39730176-27.43628203 2.24887588-37.3313338-7.64617675-6.29685176-6.74662675-23.38830615-20.23988028-35.08245878-20.23988028s-28.78560703 13.94302852-35.0824588 20.68965528c-9.89505263 9.89505263-24.28785615 13.04347852-37.33133466 7.64617675l-0.89955-0.449775-52.17391318-28.78560703-1.349325-0.89955088c-12.14392763-8.54572676-16.6416794-24.73763115-10.79460264-38.23088467 2.24887588-5.39730176 3.59820088-10.79460263 4.04797587-16.64167851 0-24.28785615-19.79010527-44.07796143-44.07796141-44.07796143h-2.248875c-12.14392763 0-22.03898028-9.89505263-25.18740704-25.18740615-2.69865088-13.49325352-4.04797588-26.98650703-4.49775088-40.47976055 0-17.0914544 4.04797588-38.23088467 4.49775088-40.92953466 2.69865088-15.29235352 12.59370352-25.18740615 25.18740704-25.18740615h1.7991c24.28785615 0 44.07796143-19.79010527 44.07796141-44.07796143 0-6.29685176-2.69865088-14.39280352-4.04797675-16.6416794-5.84707675-14.39280352-0.89955-30.58470791 11.69415352-39.13043466l50.3748123-28.33583203c13.04347852-5.39730176 27.88605703-2.24887588 37.78110967 8.09595263 6.29685176 6.74662675 23.83808115 21.58920528 35.98200879 21.58920528s29.68515703-14.84257852 35.98200879-22.03898116c9.89505263-10.79460263 25.63718115-13.49325352 39.13043467-7.64617675l50.82458818 28.33583203 1.349325 0.89955088c12.14392763 8.54572676 16.6416794 24.73763115 10.79460263 38.23088378-2.24887588 5.39730176-3.59820088 10.79460263-4.04797587 16.6416794 0 24.28785615 19.79010527 44.07796143 44.07796142 44.07796143h2.248875c12.59370352 0 22.03898028 9.89505263 25.18740703 25.18740615 0 0 4.49775088 22.48875527 4.49775088 40.92953466-0.449775 17.5412294-4.49775088 38.68065967-4.94752675 40.92953555z m-38.2308838-67.4662667c-41.82908555-5.39730176-72.86356846-40.92953555-72.86356846-83.20839609 0-9.89505263 2.24887588-19.34033028 4.49775089-25.18740615l-36.88155879-20.23988028c-4.94752588 4.49775088-9.89505263 8.99550263-15.2923544 13.04347852-16.1919044 12.14392763-31.93403291 17.9910044-46.77661142 17.99100439-14.84257852 0-30.13493291-5.84707675-46.32683643-17.99100439-5.39730176-4.04797588-10.34482763-8.09595175-14.84257852-12.59370352l-35.08245878 19.79010528c2.24887588 6.29685176 4.49775088 15.74212852 4.49775088 25.63718115 0 42.27886055-31.03448291 77.81109434-72.86356846 83.20839609-1.349325 8.99550263-2.24887588 17.9910044-2.69865088 26.98650703 0 8.99550263 1.349325 19.79010527 2.69865088 26.98650615 41.82908555 5.39730176 72.86356846 40.92953555 72.86356846 83.2083961 0 9.89505263-2.24887588 18.8905544-4.49775088 25.18740615l37.78110878 20.68965528c3.14842588-3.14842588 8.54572676-7.64617676 15.2923544-12.59370264 15.74212852-11.24437763 31.03448291-17.0914544 45.42728643-17.09145439 14.39280352 0 29.23538203 5.84707675 45.42728554 16.64167851 6.29685176 4.49775088 11.69415263 8.99550263 14.8425794 12.14392852l36.43178379-20.23988028c-2.24887588-6.29685176-4.49775088-15.74212852-4.49775089-25.63718115 0-42.27886055 31.48425791-77.81109434 72.86356846-83.2083961 1.349325-6.74662675 2.69865088-17.9910044 2.69865-26.98650703 0-8.54572676-1.349325-19.79010527-2.69865-26.53673115zM477.35232343-34.51574209l51.72413819 223.53823125-3.59820089 20.68965439-27.88605703 8.09595264 0.449775 3.59820088 11.24437852 22.48875527-2.69865087 5.39730176-26.98650703 11.24437764-27.43628204-9.44527764-2.69865-5.39730087 10.34482676-23.38830616 0.89955088-3.14842588-28.33583203-8.09595176-6.29685176-22.03898027z"  horiz-adv-x="1156" />

    
    <glyph glyph-name="-nv" unicode="&#58938;" d="M626.09375 770.90625c-138 0-249.84375-109.21875-249.84375-243.9375 0-61.78125 23.53125-118.21875 62.34375-161.15625l-81.46875-81.46875L234.5 407.0625l-49.03125-49.03125 122.625-122.625L134 61.3125l49.03125-49.03125 174.09375 174.09375 122.625-122.625 49.03125 49.03125L406.25 235.40625l85.78125 85.78125c38.71875-24.09375 84.75-38.0625 134.0625-38.0625 138 0 249.84375 109.21875 249.84375 243.9375S764.09375 770.90625 626.09375 770.90625zM626.09375 352.5c-99.5625 0-180.46875 78.28125-180.46875 174.5625s81 174.5625 180.46875 174.5625c99.5625 0 180.46875-78.28125 180.46875-174.5625S725.5625 352.5 626.09375 352.5z"  horiz-adv-x="1024" />

    
    <glyph glyph-name="-choiceO" unicode="&#58939;" d="M511.889995 767.254777c-201.839984 0-365.489158-163.614381-365.489158-365.490182 0-201.839984 163.649174-365.490182 365.489158-365.490182 201.876824 0 365.490182 163.650197 365.490182 365.490182C877.380176 603.641419 713.767841 767.254777 511.889995 767.254777zM511.889995 237.295753c-90.836845 0-164.469865 73.633021-164.469865 164.469865s73.633021 164.470889 164.469865 164.470889c90.838891 0 164.470889-73.634044 164.470889-164.470889S602.728886 237.295753 511.889995 237.295753z"  horiz-adv-x="1024" />

    
    <glyph glyph-name="-shuaxin" unicode="&#59212;" d="M542.56484375 38.55820312000003c18.61962891 1.59873047 35.01035156-12.19921875 36.60820312-30.81972656 1.59873047-18.61962891-12.19921875-35.00947266-30.81972656-36.60820312A419.83769531 419.83769531 0 0 0 512.43945313-30.404296879999947c-229.11152344 0-414.84375 185.73222656-414.84375001 414.84375001 0 167.89306641 100.66992188 317.25175781 252.52031251 381.87421874 17.19580078 7.31777344 37.06875-0.68994141 44.38652343-17.88574218 7.31777344-17.19492187-0.68994141-37.06787109-17.88574218-44.38476563C249.51992188 649.95439453 165.27148437 524.95898438 165.27148437 384.43945313c0-191.73515625 155.4328125-347.16796875 347.16796876-347.16796876 10.10390625 0 20.1515625 0.43066406 30.12539062 1.28671876z m-58.9921875 691.86796875c-18.62578125-1.53105469-34.96552734 12.32666016-36.49658203 30.9515625-1.53105469 18.62578125 12.32666016 34.96552734 30.9515625 36.49658204A419.96162109 419.96162109 0 0 0 512.43945313 799.28320313c229.11152344 0 414.84375-185.73222656 414.84374999-414.84375001 0-167.34902344-100.01953125-316.31835938-251.13339843-381.28095703-17.16855469-7.38105469-37.07050781 0.55371094-44.4506836 17.72314454-7.38105469 17.16855469 0.55371094 37.07050781 17.72314453 44.45068359C775.90390625 119.70673827999997 859.60742188 244.37431641 859.60742188 384.43945313c0 191.73515625-155.4328125 347.16796875-347.16796876 347.16796874-9.67939453 0-19.30605469-0.39550781-28.86679687-1.18124999zM323.55986328 709.40185547l-87.62080078 17.03144531C217.59277344 729.99902344 205.61328125 747.76171875 209.17900391 766.10625c3.56572266 18.34453125 21.32841797 30.32578125 39.67294921 26.75917969l116.54296875-22.65292969a34.28613281 34.28613281 0 0 0 2.7975586-0.66708984c0.4921875-0.07294922 0.98613281-0.15820313 1.48007812-0.25400391 18.34453125-3.56572266 30.32578125-21.32841797 26.7600586-39.67294922l-22.6538086-116.54296875c-3.56572266-18.34453125-21.32841797-30.32578125-39.67294922-26.75917969-18.34453125 3.56572266-30.32578125 21.32753906-26.76005859 39.67207032l16.2140625 83.41347656zM701.23115234 61.40976562000003l87.62167969-17.03144531c18.34453125-3.56572266 30.32490234-21.32841797 26.75917969-39.67382812-3.56572266-18.34365234-21.32753906-30.32490234-39.67294922-26.75917969l-116.54296875 22.65380859a34.28613281 34.28613281 0 0 0-2.79755859 0.66621094c-0.4921875 0.07382812-0.98613281 0.15820313-1.48007813 0.25488281-18.34453125 3.56572266-30.32578125 21.32753906-26.75917969 39.67294922l22.65292969 116.54296875c3.56660156 18.34453125 21.32841797 30.32490234 39.67382813 26.75917969 18.34365234-3.56572266 30.32490234-21.32753906 26.75917968-39.67294922l-16.2140625-83.41259766z"  horiz-adv-x="1024" />

    
    <glyph glyph-name="-nan" unicode="&#58894;" d="M830.93333333 770.77333333H561.17333333c-16.53333333 0-29.86666667-13.33333333-29.86666666-29.86666667s13.33333333-29.86666667 29.86666666-29.86666667h199.78666667l-203.73333333-203.73333333c-50.34666667 41.6-113.06666667 64.32-179.30666667 64.32-75.30666667 0-146.13333333-29.33333333-199.36-82.56-53.22666667-53.22666667-82.56-124.05333333-82.56-199.36s29.33333333-146.13333333 82.56-199.36c53.22666667-53.22666667 124.05333333-82.56 199.36-82.56s146.13333333 29.33333333 199.36 82.56 82.56 124.05333333 82.56 199.36c0 64.32-21.44 125.44-60.90666667 175.04L801.06666667 666.77333333v-195.62666667c0-16.53333333 13.33333333-29.86666667 29.86666666-29.86666667s29.86666667 13.33333333 29.86666667 29.86666667V740.90666666c0 16.53333333-13.33333333 29.86666667-29.86666667 29.86666667zM535.04 132.37333333000004c-86.61333333-86.61333333-227.73333333-86.61333333-314.34666667 0-86.61333333 86.61333333-86.61333333 227.73333333 0 314.34666666 43.30666667 43.30666667 100.26666667 64.96 157.12 64.96s113.81333333-21.65333333 157.12-64.96c86.72-86.61333333 86.72-227.62666667 0.10666667-314.34666666z"  horiz-adv-x="1024" />

    
    <glyph glyph-name="-daohangshouqi" unicode="&#58918;" d="M119.882927 459.426341h479.531707c4.395707 0 7.992195 3.596488 7.992195 7.992196v47.95317c0 4.395707-3.596488 7.992195-7.992195 7.992195H119.882927c-4.395707 0-7.992195-3.596488-7.992195-7.992195v-47.95317c0-4.395707 3.596488-7.992195 7.992195-7.992196z m-7.992195-205.799024c0-4.395707 3.596488-7.992195 7.992195-7.992195h479.531707c4.395707 0 7.992195 3.596488 7.992195 7.992195v47.953171c0 4.395707-3.596488 7.992195-7.992195 7.992195H119.882927c-4.395707 0-7.992195-3.596488-7.992195-7.992195v-47.953171z m791.227317 482.528781H119.882927c-4.395707 0-7.992195-3.596488-7.992195-7.992196v-47.95317c0-4.395707 3.596488-7.992195 7.992195-7.992195h783.235122c4.395707 0 7.992195 3.596488 7.992195 7.992195v47.95317c0 4.395707-3.596488 7.992195-7.992195 7.992196z m0-639.37561H119.882927c-4.395707 0-7.992195-3.596488-7.992195-7.992195v-47.953171c0-4.395707 3.596488-7.992195 7.992195-7.992195h783.235122c4.395707 0 7.992195 3.596488 7.992195 7.992195v47.953171c0 4.395707-3.596488 7.992195-7.992195 7.992195zM740.651707 377.60624399999995l156.147513-122.979903c5.794341-4.595512 14.385951-0.499512 14.385951 6.893269V507.479415c0 7.39278-8.491707 11.48878-14.385951 6.893268l-156.147513-122.979903c-4.49561-3.496585-4.49561-10.289951 0-13.786536z"  horiz-adv-x="1024" />

    
    <glyph glyph-name="-daohangzhankai" unicode="&#58919;" d="M423.586341 459.426341h479.531708c4.395707 0 7.992195 3.596488 7.992195 7.992196v47.95317c0 4.395707-3.596488 7.992195-7.992195 7.992195H423.586341c-4.395707 0-7.992195-3.596488-7.992195-7.992195v-47.95317c0-4.395707 3.596488-7.992195 7.992195-7.992196z m-7.992195-205.799024c0-4.395707 3.596488-7.992195 7.992195-7.992195h479.531708c4.395707 0 7.992195 3.596488 7.992195 7.992195v47.953171c0 4.395707-3.596488 7.992195-7.992195 7.992195H423.586341c-4.395707 0-7.992195-3.596488-7.992195-7.992195v-47.953171z m487.523903 482.528781H119.882927c-4.395707 0-7.992195-3.596488-7.992195-7.992196v-47.95317c0-4.395707 3.596488-7.992195 7.992195-7.992195h783.235122c4.395707 0 7.992195 3.596488 7.992195 7.992195v47.95317c0 4.395707-3.596488 7.992195-7.992195 7.992196z m0-639.37561H119.882927c-4.395707 0-7.992195-3.596488-7.992195-7.992195v-47.953171c0-4.395707 3.596488-7.992195 7.992195-7.992195h783.235122c4.395707 0 7.992195 3.596488 7.992195 7.992195v47.953171c0 4.395707-3.596488 7.992195-7.992195 7.992195zM282.424195 377.667184l-156.147512-122.979902c-5.794341-4.595512-14.385951-0.499512-14.385951 6.893268v245.959805c0 7.39278 8.491707 11.48878 14.385951 6.893268l156.147512-122.979902c4.49561-3.496585 4.49561-10.289951 0-13.786537z"  horiz-adv-x="1024" />

    
    <glyph glyph-name="-xiala" unicode="&#58905;" d="M561.873 170.83500000000004c-11.262-11.262-26.545-21.72-41.025-18.502-14.479-2.413-28.154 8.849-39.415 18.502L133.129 520.748c-17.697 17.696-17.697 46.655 0 64.352s46.655 17.696 64.351 0l324.173-333.021 324.977 333.02c17.696 17.697 46.655 17.697 64.351 0s17.697-46.655 0-64.351L561.873 170.83500000000004z"  horiz-adv-x="1024" />

    
    <glyph glyph-name="-xiala1" unicode="&#58882;" d="M894.3125 506.71875002L552.50000002 132.9375a53.79093749 53.79093749 0 0 0-40.40625003-18.28124999c-15.46875001 0-30.18749999 6.65625001-40.40624999 18.28124999L129.87500001 506.71875001c-16.6875 17.625-21.84375002 43.3125-13.21875004 65.99999998s29.43750001 38.53125001 53.62500004 40.6875l683.34374998 0c24.28124999-2.0625 45.1875-17.8125 53.81250001-40.59374999 8.71875001-22.78125001 3.5625-48.37499999-13.125-66.09375001z"  horiz-adv-x="1024" />

    
    <glyph glyph-name="-shanchu" unicode="&#58927;" d="M764.421875 65.484375c0-30.234375-24.609375-54.84375-54.815625-54.84375H314.421875a54.928125 54.928125 0 0 0-54.84375 54.84375V647.671875h504.84375v-582.1875zM369.265625 746.109375c0 6.328125 4.921875 11.25 11.25 11.25h263.671875c6.328125 0 11.221875-4.921875 11.221875-11.25v-33.046875H369.265625V746.109375z m559.6875-33.046875H720.828125V746.109375c0 42.1875-34.453125 76.640625-76.640625 76.640625h-263.671875a76.809375 76.809375 0 0 1-76.640625-76.640625v-33.046875H95.046875C76.765625 713.0625 62 698.296875 62 680.015625s14.765625-33.046875 33.046875-33.046875h98.4375v-581.484375A120.9375 120.9375 0 0 1 314.421875-55.453125h395.15625a120.9375 120.9375 0 0 1 120.9375 120.9375V647.671875h98.4375c18.28125 0 33.046875 14.765625 33.046875 33.046875s-14.765625 32.34375-33.046875 32.34375zM512 109.78125c18.28125 0 33.046875 14.765625 33.046875 33.046875v351.5625c0 18.28125-14.7375 33.046875-33.046875 33.046875-18.28125 0-33.046875-14.765625-33.046875-33.046875v-351.5625c0-18.28125 14.765625-33.046875 33.046875-33.046875m-153.984375 0c18.28125 0 33.046875 14.765625 33.046875 33.046875v351.5625c0 18.28125-14.765625 33.046875-33.046875 33.046875s-33.046875-14.765625-33.046875-33.046875v-351.5625c0.703125-18.28125 15.46875-33.046875 33.046875-33.046875m307.96875 0c18.28125 0 33.075 14.765625 33.075 33.046875v351.5625c0 18.28125-14.765625 33.046875-33.075 33.046875-18.253125 0-33.046875-14.765625-33.046875-33.046875v-351.5625c0-18.28125 14.765625-33.046875 33.046875-33.046875"  horiz-adv-x="1024" />

    
    <glyph glyph-name="-fenxiang" unicode="&#59146;" d="M324.266667 896h682.666666L0-110.93333299999995V588.8L324.266667 896zM440.32 541.013333c-17.066667 0-32.426667-6.826667-42.666667-18.773333l-95.573333 46.08c1.706667 6.826667 3.413333 13.653333 3.413333 20.48 0 8.533333-1.706667 15.36-3.413333 23.893333l93.866667 51.2c10.24-11.946667 25.6-20.48 44.373333-20.48 32.426667 0 58.026667 25.6 58.026667 58.026667S472.746667 759.466667 440.32 759.466667s-58.026667-25.6-58.026667-58.026667c0-5.12 0-10.24 1.706667-13.653333l-93.866667-51.2c-13.653333 18.773333-35.84 29.013333-61.44 29.013333-42.666667 0-76.8-34.133333-76.8-76.8s34.133333-76.8 76.8-76.8c25.6 0 49.493333 11.946667 63.146667 32.426667l93.866667-46.08c-1.706667-5.12-1.706667-10.24-1.706667-15.36 0-32.426667 25.6-58.026667 58.026667-58.026667s58.026667 25.6 58.026666 58.026667c-1.706667 32.426667-27.306667 58.026667-59.733333 58.026666z"  horiz-adv-x="1024" />

    
    <glyph glyph-name="-58shangchuanwenjian" unicode="&#59604;" d="M796.16 523.6800000000001a288 288 0 0 1-568.8 0A240 240 0 0 1 272 48h192V240H368L512 432l144-192H560v-192H752a240 240 0 0 1 44.16 475.68z"  horiz-adv-x="1024" />

    
    <glyph glyph-name="-wenhao" unicode="&#59012;" d="M507.15283203 240.703125c-13.84628906 0-26.30566406-4.15195313-36-13.84628906q-14.540625-13.50527344-14.540625-35.30566407a48.06738281 48.06738281 0 0 1 14.540625-35.31621093c9.69433594-9.69433594 22.12294922-14.54150391 36-14.54150391a51.97851563 51.97851563 0 0 1 36 13.84716797c9.69433594 9.69433594 15.23496094 21.459375 15.23496094 36s-4.84716797 26.30566406-14.540625 35.30566406c-9.69433594 9.69433594-22.15371094 13.85771484-36.69433594 13.85771485z m12.459375 405c-51.23496094 0-91.38779297-14.53974609-120.459375-44.30566406-29.08125-29.08125-43.61132813-68.540625-43.61132812-119.08125h72.69345703q0 45.69433594 18.69433593 70.61220703c13.84628906 20.11201172 36.69345703 29.76503906 67.84628907 29.76503906 24.91787109 0 45-6.91787109 58.84716797-20.76503906 13.15283203-13.84716797 20.11113281-32.540625 20.11113281-56.76503906 0-18-6.91787109-34.61220703-19.38779297-50.540625l-11.76503906-13.15371094c-42.91875-38.08125-69.23496094-66.459375-78.23496094-85.84628906-9.69433594-18-13.84628906-40.15371094-13.84628906-65.76591797V278.09179687000005h74.08125v11.76503907c0 16.61220703 3.459375 31.84716797 11.06103515 45.69433594 6.23496094 12.45849609 15.91875 24.91787109 29.08212891 36q48.8109375 42.57597656 58.15283203 54c17.30566406 22.12207031 26.30566406 50.540625 26.30566406 84.46904296 0 41.540625-13.84628906 74.76503906-41.540625 99-27.72333984 24.86777344-63.72333984 36.67324219-108.02988281 36.67324219zM512-66C263.46904297-66 62 135.46904297000003 62 384S263.46904297 834 512 834s450-201.46904297 450-450-201.46904297-450-450-450z"  horiz-adv-x="1024" />

    
    <glyph glyph-name="-bianliang" unicode="&#59335;" d="M960-25.600000000000023c0-38.4-25.6-64-64-64H128c-38.4 0-64 25.6-64 64s25.6 64 64 64h768c38.4 0 64-32 64-64zM256 121.60000000000002c-25.6 25.6-25.6 64 0 89.6L620.8 576c25.6 25.6 64 25.6 89.6 0 25.6-25.6 25.6-64 0-89.6l-364.8-364.8c-25.6-25.6-64-25.6-89.6 0zM70.4 390.4c25.6 25.6 64 25.6 89.6 0l179.2-179.2c25.6-25.6 25.6-64 0-89.6-25.6-25.6-64-25.6-89.6 0L70.4 300.79999999999995c-19.2 25.6-19.2 64 0 89.6zM812.8 377.6L512 678.4c-44.8 44.8-19.2 121.6 44.8 128l332.8 25.6c44.8 6.4 83.2-32 83.2-83.2l-32-332.8c-6.4-57.6-83.2-83.2-128-38.4z"  horiz-adv-x="1024" />

    
    <glyph glyph-name="-shuju" unicode="&#58968;" d="M40.96 896h805.546667a40.96 40.96 0 0 0 40.96-40.96v-293.546667a40.96 40.96 0 0 0-40.96-40.96H40.96a40.96 40.96 0 0 0-40.96 40.96V855.04A40.96 40.96 0 0 0 40.96 896z m40.96-81.92v-211.626667h723.626667V814.08H81.92zM477.866667 349.866667v-81.92H81.92v-211.626667H477.866667v-81.92H40.96a40.96 40.96 0 0 0-40.96 40.96V308.90666699999997A40.96 40.96 0 0 0 40.96 349.866667H477.866667zM177.493333 759.466667h191.146667a40.96 40.96 0 1 0 0-81.92H177.493333a40.96 40.96 0 1 0 0 81.92z m0-546.133334h191.146667a40.96 40.96 0 0 0 0-81.92H177.493333a40.96 40.96 0 0 0 0 81.92z m546.133334-40.96v136.533334a40.96 40.96 0 0 0 81.92 0v-136.533334h136.533333a40.96 40.96 0 0 0 0-81.92h-136.533333v-136.533333a40.96 40.96 0 0 0-81.92 0v136.533333h-136.533334a40.96 40.96 0 0 0 0 81.92h136.533334z"  horiz-adv-x="1024" />

    
    <glyph glyph-name="-shujuyuan1" unicode="&#58992;" d="M1030.27759 145.93397300000004a138.451919 138.451919 0 0 1-164.598698-16.774891l-67.572097 40.243988V368.181593a57.963943 57.963943 0 0 1-28.115663 49.930896l-173.261787 102.618232V608.7004549999999a146.484965 146.484965 0 0 1 96.86909 139.003206c0 81.118018-63.94935 146.799987-142.783463 146.799987-78.912868 0-142.783464-65.603213-142.783464-146.799987 0-64.579393 40.559009-119.314367 96.86909-139.003206v-87.969734L331.560056 418.112489a57.885188 57.885188 0 0 1-28.036907-49.930896v-198.621013l-67.572097-40.243987a138.530674 138.530674 0 0 1-164.677453 16.774891c-68.20214-40.637765-91.356215-130.261362-52.293558-200.35363 39.298923-70.092268 126.087328-94.270163 194.053202-53.711154 54.104931 32.210941 79.857933 95.609004 68.280895 155.620587l62.059222 37.093773 179.247194-106.162222a55.286261 55.286261 0 0 1 56.073814 0l179.089684 106.083467 62.059222-37.093774c-11.577038-59.854072 14.333475-123.488401 68.35965-155.699342 67.887118-40.480254 154.833033-16.538625 193.974446 53.711154 39.298923 70.249779 16.066093 159.873376-51.89978 200.35363zM172.474233-35.439616a59.775317 59.775317 0 0 0-83.086902 23.07532 63.870595 63.870595 0 0 0 22.287766 85.84334 59.775317 59.775317 0 0 0 83.086903-23.07532 63.870595 63.870595 0 0 0-22.287767-85.84334z m316.990315 783.143277c0 34.731113 27.406864 63.004286 61.192913 63.004287 33.786048 0 61.192913-28.273173 61.192913-63.004287 0-34.652357-27.406864-62.846775-61.192913-62.846775a62.059222 62.059222 0 0 0-61.192913 62.846775z m216.734745-584.679775l-155.541832-92.143769-155.541831 92.143769V346.996401l155.541831 92.143769 155.541832-92.143769v-183.972515z m305.728298-175.466937a59.854072 59.854072 0 0 0-83.086902-23.07532 64.028106 64.028106 0 0 0-22.287766 85.84334 59.854072 59.854072 0 0 0 83.086902 22.996564 63.79184 63.79184 0 0 0 22.287766-85.84334z"  horiz-adv-x="1102" />

    
    <glyph glyph-name="-bianji" unicode="&#58959;" d="M858.39181719 801.63884854l5.58726679-5.13728614 58.6100584-57.82259092a118.45756406 118.45756406 0 0 0 5.99974981-163.11820341l-5.36227646-5.62476534L324.82654912-43.31344511999998a74.9968752 74.9968752 0 0 0-46.98554238-22.31157041L271.16628506-65.96250146H100.06091387a37.4984376 37.4984376 0 0 0-37.23594785 32.9986248l-0.26248975 4.38731718-0.4874792 156.593475a74.9968752 74.9968752 0 0 0 17.32427754 48.14799435l4.42481572 4.87479638L694.11116182 796.5015624a121.34494424 121.34494424 0 0 0 164.28065537 5.13728614zM924.46406386 9.03437372999997a37.4984376 37.4984376 0 0 0 0-74.99687519h-449.98125029a37.4984376 37.4984376 0 1 0 0 74.99687519h449.98125029zM137.93433594 142.49131318000002l-4.16232686-4.16232685L136.20940771 9.03437372999997h134.91937881l0.07499707 0.18749179-133.26944765 133.26944766zM656.42523242 654.00749971L191.33211114 195.21411651000005l132.29448749-132.29448838L781.33252783 531.95008506 656.42523242 654.00749971zM924.42656533 159.02812412000003a37.4984376 37.4984376 0 0 0 0-74.99687519h-224.99062559a37.4984376 37.4984376 0 1 0 0 74.99687519h224.99062559zM750.73380313 746.55364365l-4.04983126-3.52485352-36.86096426-36.33598564 123.85733907-121.08245449 36.48597978 37.34844346c5.96225127 5.812258 10.04958105 13.1994501 11.92450342 21.22411552l0.82496514 4.87479727 0.2999874 4.94979346c0 10.01208252-3.44985644 19.68667998-9.74959365 27.44885654l-3.41235791 3.74984385-58.64755606 57.82259003-3.67484677 3.22486612a46.34806904 46.34806904 0 0 1-56.9976249 0.2999874z"  horiz-adv-x="1024" />

    
    <glyph glyph-name="-bianliang1" unicode="&#59422;" d="M147.91111111 820.90666667h728.17777778c53.39970333 0 97.09036999-43.69066667 97.09036999-97.09037v-679.63259334c0-53.39970333-43.69066667-97.09036999-97.09036999-97.09037H147.91111111c-53.39970333 0-97.09036999 43.69066667-97.09036999 97.09037V723.81629667c0 53.39970333 43.69066667 97.09036999 97.09036999 97.09037z m0-72.81777778c-14.56355555 0-24.27259221-9.70903666-24.27259221-24.27259222v-679.63259334c0-14.56355555 9.70903666-24.27259221 24.27259221-24.27259222h728.17777778c14.56355555 0 24.27259221 9.70903666 24.27259221 24.27259222V723.81629667c0 14.56355555-9.70903666 24.27259221-24.27259221 24.27259222H147.91111111z m339.81629668-410.20681444c-16.99081443 2.42725888-31.55436999 4.8545189-46.11792669 12.13629554L412.48236999 311.18222221999997c4.8545189-19.41807445 9.70903666-41.26340779 12.13629668-58.25422222 2.42725888-16.99081443 9.70903666-33.98163001 16.99081443-48.54518557 9.70903666-12.13629667 36.40888889 2.42725888 36.40888889 2.42726002 2.42725888 2.42725888 7.28177778 2.42725888 12.13629668 2.42725888 14.56355555 0 26.69985223-9.70903666 26.69985223-24.27259221 0-9.70903666-7.28177778-19.41807445-16.99081557-21.84533333-21.84533333-12.13629667-46.11792555-19.41807445-72.81777778-19.41807446-31.55436999 0-58.25422222 16.99081443-67.96325888 43.69066667-2.42725888 9.70903666-7.28177778 29.12711111-12.13629668 53.39970333 0 0-19.41807445-29.12711111-33.98162887-55.82696221-16.99081443-26.69985223-33.98163001-38.83614777-53.39970446-38.83614891-9.70903666 0-41.26340779 2.42725888-41.26340665 41.26340779-2.42725888 12.13629667 2.42725888 26.69985223 12.13629554 36.40888889 9.70903666 9.70903666 21.84533333 16.99081443 36.40888888 16.99081444 16.99081443-2.42725888 31.55436999-4.8545189 46.11792669-9.70903666l26.69985109 36.40888888c-4.8545189 26.69985223-14.56355555 58.25422222-21.84533333 84.95407446-2.42725888 7.28177778-4.8545189 12.13629667-4.85451776 16.99081444-7.28177778 16.99081443-38.83614777 0-38.83614891 0-2.42725888-2.42725888-7.28177778-2.42725888-12.13629554-2.42725888-14.56355555 0-26.69985223 9.70903666-26.69985222 24.27259221 0 7.28177778 4.8545189 16.99081443 12.13629667 19.41807445 24.27259221 14.56355555 53.39970333 21.84533333 80.09955555 21.84533334 31.55436999-2.42725888 58.25422222-21.84533333 65.536-53.39970447 2.42725888-7.28177778 4.8545189-21.84533333 9.70903666-41.26340665 0 0 19.41807445 29.12711111 33.98163001 55.82696221 16.99081443 26.69985223 33.98163001 38.83614777 53.39970333 38.83614891 9.70903666 0 41.26340779-2.42725888 41.26340778-41.26340779 2.42725888-12.13629667-2.42725888-26.69985223-12.13629667-36.40888889-4.8545189-9.70903666-16.99081443-16.99081443-31.55436999-16.99081444zM123.6385189 650.9985189h776.7229622v-72.81777778H123.6385189v72.81777778z m521.86073998-242.72592669h145.63555555c19.41807445 0 36.40888889-16.99081443 36.4088889-36.40888888s-16.99081443-36.40888889-36.4088889-36.4088889h-145.63555555c-19.41807445 0-36.40888889 16.99081443-36.40888889 36.4088889s16.99081443 36.40888889 36.40888889 36.40888888z m0-169.90814776h145.63555555c19.41807445 0 36.40888889-16.99081443 36.4088889-36.4088889s-16.99081443-36.40888889-36.4088889-36.40888888h-145.63555555c-19.41807445 0-36.40888889 16.99081443-36.40888889 36.40888888s16.99081443 36.40888889 36.40888889 36.4088889z"  horiz-adv-x="1024" />

    
    <glyph glyph-name="-moxing" unicode="&#58889;" d="M509 864l417-240v-480l-417-240L92 144V624l417 240z m0-120L197 564v-360l312-180 312 180V564L509 744z m183-198l45-78-186-108v-195h-90v192l-186 108 45 78 186-108 186 111z"  horiz-adv-x="1024" />

    
    <glyph glyph-name="-shujuxiangguanxingwajue" unicode="&#59008;" d="M737.5625 450.15v-0.5625L962 335.4l-4.78125-2.3625 4.78125 2.41875v-286.7625L736.4375-66 512 48.69375000000002V335.4l224.4375 114.1875v0.5625l0.5625-0.28125 0.5625 0.28125zM174.5 325.95000000000005v-169.36875c0-31.1625 25.2-56.475 56.25-56.475h225v-56.41875H230.75c-62.15625 0-112.5 50.5125-112.5 112.89375v169.3125h56.25z m562.5 61.2l-164.1375-82.6875 164.19375-83.3625 164.08125 83.41875L737 387.15zM287.5625 834v-0.5625L512 719.30625l-4.78125-2.41875L512 719.30625v-286.7625L286.4375 317.85 62 432.6V719.25L286.4375 833.4375V834L287 833.71875 287.5625 834zM793.25 721.10625c62.15625 0 112.5-50.56875 112.5-112.89375v-169.36875h-56.25v169.3125c0 31.21875-25.2 56.475-56.25 56.475H568.25V721.1625h225zM287 771L122.8625 688.36875l164.19375-83.41875 164.08125 83.41875L287 771z"  horiz-adv-x="1024" />

    
    <glyph glyph-name="-shujumiaoshu" unicode="&#59087;" d="M855.86363633-63.72727237000004h-515.90909092C225.86363633-63.72727237000004 133.59090869 28.65909082999997 133.59090869 142.52272704999996V795.59090917c0 18.97727256 15.45454511 34.43181856 34.43181855 34.43181768h515.90909093c114.09090908 0 206.36363672-92.38636406 206.36363672-206.24999941v-653.18181856c-0.11363643-18.86363614-15.45454511-34.31818213-34.43181856-34.31818125zM426.09090869 606.61363594c0.34090928-27.0454544-0.11363643-67.15909072-0.11363554-68.7499998h68.63636338c0.34090928 38.06818154-30.68181826 69.09090908-68.52272784 68.7499998z m-51.93181757-120.45454542s-0.22727285 79.9999998-1.24999981 137.61363692c-76.02272754 0.79545498-137.04545479-60.22727315-136.25000069-136.13636338 0.79545498-76.02272754 62.84090918-138.29545459 138.7500003-138.86363672 75.90909112-0.79545498 136.81818193 60.34090869 136.13636338 136.24999981-30.34090898 0.11363643-137.38636406 1.13636338-137.38636318 1.13636337z m361.36363622 137.61363692H598.70454541c-18.74999971 0-34.65909053-14.77272744-35.11363624-33.52272715-0.4545457-19.43181826 15.11363672-35.22727266 34.31818214-35.22727266h136.81818106c18.63636328 0 34.54545498 14.54545459 35.11363711 33.18181788 0.56818213 19.54545469-15.00000029 35.56818193-34.31818214 35.56818193z m17.15909063-206.25000029H598.70454541c-18.74999971 0-34.65909053-14.77272744-35.11363624-33.52272715-0.4545457-19.43181826 15.11363672-35.22727266 34.31818214-35.22727266H751.88636386c18.74999971 0 34.65909053 14.77272744 35.11363624 33.52272716 0.56818213 19.43181826-15.11363672 35.22727266-34.31818213 35.22727265z m0-206.2500003H271.88636328c-18.74999971 0-34.65909053-14.77272744-35.11363623-33.52272714-0.4545457-19.43181826 15.11363672-35.22727266 34.31818212-35.22727266h481.5909088c18.97727256 0 34.31818213 15.34090869 34.31818213 34.31818213 0.11363643 18.97727256-15.34090869 34.43181856-34.31818213 34.43181767z m0 0"  horiz-adv-x="1024" />

    
    <glyph glyph-name="-jueceshumoxing" unicode="&#58881;" d="M490.667 179.20000000000005h401.066c25.6 0 46.934-21.333 46.934-51.2v-76.8c0-25.6-21.334-51.2-46.934-51.2H490.667c-25.6 0-46.934 21.333-46.934 51.2v8.533h-268.8c-17.066 0-29.866 12.8-29.866 29.867V588.8h-12.8c-25.6 0-46.934 25.6-46.934 51.2v76.8c0 29.867 21.334 51.2 46.934 51.2h81.066c25.6 0 46.934-21.333 46.934-51.2V640c0-25.6-21.334-51.2-46.934-51.2h-12.8v-179.2h238.934v8.533c0 25.6 21.333 51.2 46.933 51.2h401.067c25.6 0 46.933-21.333 46.933-51.2v-76.8c0-25.6-21.333-51.2-46.933-51.2H486.4c-25.6 0-46.933 21.334-46.933 51.2v8.534H200.533V115.20000000000005h238.934V128c0 25.6 21.333 51.2 51.2 51.2z m401.066 409.6h-524.8c-29.866 0-51.2 25.6-51.2 51.2v76.8c0 29.867 21.334 51.2 51.2 51.2h524.8c25.6 0 46.934-21.333 46.934-51.2V640c0-25.6-21.334-51.2-46.934-51.2z"  horiz-adv-x="1024" />

    
    <glyph glyph-name="-xinzeng" unicode="&#58928;" d="M455.75 440.25H118.25a56.25 56.25 0 0 1 0-112.5h337.5v-337.5a56.25 56.25 0 0 1 112.5 0v337.5h337.5a56.25 56.25 0 0 1 0 112.5h-337.5V777.75a56.25 56.25 0 0 1-112.5 0v-337.5z"  horiz-adv-x="1024" />

    
    <glyph glyph-name="-search-btn" unicode="&#58880;" d="M936.44489801 9.651057000000037L773.85894 172.23701500000004c62.556755 72.204485 96.698343 163.441443 96.698343 259.928984 0 106.210997-41.361013 206.064192-116.463502 281.167704-75.102489 75.101465-174.956707 116.46247801-281.168728 116.462478-106.210997 0-206.064192-41.361013-281.165658-116.463502C116.656907 638.230192 75.296917 538.3759729999999 75.296917 432.165999s41.361013-206.064192 116.463502-281.167704c75.101465-75.102489 174.955684-116.46350201 281.165658-116.463502 87.748507 0 171.14182199 28.255531 239.83943701 80.420611l164.49237799-164.49237801c8.172123-8.172123 18.883069-12.259208 29.594015-12.259208s21.421892 4.087085 29.59401501 12.259208C952.789145-33.19170399999996 952.789145-6.693190009999967 936.44489801 9.651057000000037zM159.00029399 432.165999c0 173.099407 140.826376 313.92578201 313.92475901 313.925782 173.099407 0 313.92680599-140.826376 313.926806-313.925782s-140.827399-313.924759-313.926806-313.924759C299.82667001 118.24021700000003 159.00029399 259.066593 159.00029399 432.165999z"  horiz-adv-x="1024" />

    
    <glyph glyph-name="-wodeshujubeifen" unicode="&#59015;" d="M1001.39008 129.17418667000004a27.30666667 27.30666667 0 0 0-5.46133333-34.57024l-3.98677334-2.89450667-220.85632-131.8912a81.92 81.92 0 0 0-73.12725333-5.46133333l-7.75509333 3.65909333-218.45333334 117.85557333a27.30666667 27.30666667 0 0 0 21.40842667 50.02581334l4.47829333-1.96608 218.45333334-117.80096a27.30666667 27.30666667 0 0 1 21.84533333-1.85685334l5.13365333 2.40298667 220.91093334 131.94581333a27.30666667 27.30666667 0 0 0 37.41013333-9.44810666zM430.08 848.21333333a218.45333333 218.45333333 0 0 0 41.39690667-432.97450666A27.0336 27.0336 0 0 0 457.38666667 411.30666667 354.98666667 354.98666667 0 0 1 102.4 56.32000000000005a27.30666667 27.30666667 0 1 0-54.61333333 0 409.76384 409.76384 0 0 0 270.88213333 385.51552A218.45333333 218.45333333 0 0 0 430.08 848.21333333z m571.31008-609.81248a27.30666667 27.30666667 0 0 0-5.46133333-34.57024l-3.98677334-2.89450666-220.85632-131.8912a81.92 81.92 0 0 0-73.12725333-5.46133334l-7.75509333 3.65909334-218.45333334 117.85557333a27.30666667 27.30666667 0 0 0 21.40842667 50.02581333l4.47829333-1.96608 218.45333334-117.80096a27.30666667 27.30666667 0 0 1 21.84533333-1.85685333l5.13365333 2.40298667 220.91093334 131.94581333a27.30666667 27.30666667 0 0 0 37.41013333-9.44810667z m-257.2288 251.16672l229.10293333-132.32810666a27.30666667 27.30666667 0 0 0 0-47.29514667L757.76 185.53514667000002a54.61333333 54.61333333 0 0 0-54.61333333 0l-215.50421334 124.40917333a27.30666667 27.30666667 0 0 0 0 47.29514667l229.15754667 132.32810666a27.30666667 27.30666667 0 0 0 27.30666667 0zM430.08 793.6a163.84 163.84 0 1 1 0-327.68 163.84 163.84 0 0 1 0 327.68z"  horiz-adv-x="1024" />

    
    <glyph glyph-name="-xiaoxi" unicode="&#58942;" d="M0 896h1024v-1024H0zM521.088 712.192c129.28 0 233.984-105.792 233.984-236.288v-280.448c0-21.888 6.784-43.2 19.52-60.864l36.928-52.544H230.656l36.928 52.48c12.736 17.728 19.52 39.04 19.52 60.928V475.904c0 130.56 104.768 236.288 233.984 236.288z m0 78.784c-172.288 0-312-141.056-312-315.072v-280.448a26.432 26.432 0 0 0-4.928-15.232l-66.304-93.952a52.864 52.864 0 0 1 12.16-73.28 51.648 51.648 0 0 1 30.208-9.728h681.728a52.288 52.288 0 0 1 52.032 52.48 52.864 52.864 0 0 1-9.6 30.528l-66.368 93.952a26.432 26.432 0 0 0-4.928 15.232V475.904c0 174.016-139.712 315.072-312 315.072z m25.984 26.24h-51.968a39.168 39.168 0 0 0-39.04 39.424c0 21.76 17.472 39.36 39.04 39.36h51.968c21.568 0 39.04-17.664 39.04-39.36 0-21.76-17.472-39.424-39.04-39.424zM612.096-128H456.064a39.168 39.168 0 0 0-38.976 39.36c0 21.76 17.472 39.424 39.04 39.424h155.968c21.568 0 39.04-17.664 39.04-39.424 0-21.76-17.472-39.36-39.04-39.36z"  horiz-adv-x="1024" />

    
    <glyph glyph-name="-gongchengguanli" unicode="&#59145;" d="M380 343.99999969H159.99999969c-52.00000031 0-91.99999969 40.00000031-91.99999969 92.00000062V736.00000031C68 787.99999969 108.00000031 828 159.99999969 828h220.00000031c52.00000031 0 91.99999969-40.00000031 91.99999969-91.99999969v-300C471.99999969 384 432.00000031 343.99999969 380 343.99999969zM171.99999969 772.00000031c-28.00000031 0-48-24-48-52.00000031v-271.99999969c0-28.00000031 24-52.00000031 48-52.00000031h200.00000062c28.00000031 0 48 24 48 52.00000031V720c0 28.00000031-24 52.00000031-48 52.00000031h-200.00000062zM864.00000031-60h-220.00000031C591.99999969-60 552.00000031-16.00000031000002 552.00000031 31.99999968999998v300c0 52.00000031 40.00000031 91.99999969 91.99999969 92.00000062h220.00000031c52.00000031 0 91.99999969-43.99999969 91.99999969-92.00000062v-300c0-52.00000031-40.00000031-91.99999969-91.99999969-91.99999969z m-212.00000062 432c-28.00000031 0-52.00000031-24-51.99999938-52.00000031v-276c0-28.00000031 24-52.00000031 51.99999938-51.99999938h204c28.00000031 0 52.00000031 24 52.00000031 51.99999938v276c0 28.00000031-24 52.00000031-52.00000031 52.00000031h-204zM864.00000031 504h-220.00000031C591.99999969 504 552.00000031 544.00000031 552.00000031 595.99999969V739.99999969c0 48 40.00000031 88.00000031 91.99999969 88.00000031h220.00000031c52.00000031 0 91.99999969-40.00000031 91.99999969-88.00000031v-144c0-52.00000031-40.00000031-91.99999969-91.99999969-91.99999969z m-212.00000062 276c-28.00000031 0-52.00000031-24-51.99999938-48v-132c0-28.00000031 24-48 51.99999938-48h204c28.00000031 0 52.00000031 24 52.00000031 48V732c0 28.00000031-24 48-52.00000031 48h-204zM380-60H159.99999969c-52.00000031 0-91.99999969 40.00000031-91.99999969 91.99999969v148.00000031c0 52.00000031 40.00000031 91.99999969 91.99999969 91.99999969h220.00000031c52.00000031 0 91.99999969-40.00000031 91.99999969-91.99999969v-148.00000031c0-52.00000031-40.00000031-91.99999969-91.99999969-91.99999969z m-208.00000031 280.00000031c-28.00000031 0-48-24-48-48v-132c0-28.00000031 24-48 48-48h200.00000062c28.00000031 0 48 24 48 48v132c0 28.00000031-24 48-48 48h-200.00000062z"  horiz-adv-x="1024" />

    
    <glyph glyph-name="-xitongxiaoxi" unicode="&#59144;" d="M936.00000031 148.00000031000002H87.99999969c-31.99999969 0-55.99999969 24-55.99999969 55.99999969V772.00000031C32 804 56 828 87.99999969 828h848.00000062c31.99999969 0 55.99999969-24 55.99999969-55.99999969v-568.00000031c0-31.99999969-24-55.99999969-55.99999969-55.99999969zM108.00000031 204l807.99999938-4.00000031c12 0 19.99999969 7.99999969 20.00000062 20.00000062V748.00000031c0 12-7.99999969 19.99999969-20.00000062 19.99999969L108.00000031 772.00000031c-12 0-19.99999969-7.99999969-20.00000062-20.00000062V223.99999968999998c0-12 7.99999969-19.99999969 20.00000062-19.99999969zM507.99999969 580.00000031L48.00000031 703.99999969l7.99999969 56.00000062 451.99999969-120 460.00000031 120 7.99999969-56.00000062zM231.99999969 448.00000031h80.00000062v-80.00000062H231.99999969v80.00000062z m240 0h80.00000062v-80.00000062h-80.00000062v80.00000062z m240 0h80.00000062v-80.00000062h-80.00000062v80.00000062zM476 175.99999968999998h64.00000031v-219.99999938h-64.00000031zM240.00000031 0h540c16.00000031 0 28.00000031-16.00000031 27.99999938-31.99999969s-12-31.99999969-27.99999938-32.00000062H240.00000031c-16.00000031 0-28.00000031 16.00000031-28.00000031 32.00000062 0 19.99999969 12 31.99999969 28.00000031 31.99999969z"  horiz-adv-x="1024" />

    
    </font>
</defs>
</svg>
